G04*
G04 #@! TF.GenerationSoftware,Altium Limited,Altium Designer,19.0.15 (446)*
G04*
G04 Layer_Color=16711935*
%FSLAX25Y25*%
%MOIN*%
G70*
G01*
G75*
%ADD52C,0.13811*%
%ADD53C,0.08800*%
%ADD54C,0.06800*%
%ADD55C,0.19685*%
%ADD56C,0.09800*%
%ADD57R,0.06706X0.06706*%
%ADD58C,0.06706*%
%ADD59C,0.32300*%
%ADD60C,0.03556*%
D52*
X19685Y92004D02*
D03*
Y73500D02*
D03*
X490685Y23000D02*
D03*
X19685Y175406D02*
D03*
X441685Y23000D02*
D03*
D53*
X48504Y100469D02*
D03*
X36685D02*
D03*
X48504Y65035D02*
D03*
X36685D02*
D03*
Y76846D02*
D03*
Y88657D02*
D03*
X48504Y76846D02*
D03*
Y88657D02*
D03*
X496591Y40000D02*
D03*
X484780D02*
D03*
X496591Y51819D02*
D03*
X484780D02*
D03*
X36685Y169500D02*
D03*
Y181311D02*
D03*
X48504Y169500D02*
D03*
Y181311D02*
D03*
X447590Y40000D02*
D03*
X435779D02*
D03*
X447590Y51819D02*
D03*
X435779D02*
D03*
D54*
X294685Y34500D02*
D03*
X304685D02*
D03*
X314685D02*
D03*
X264685D02*
D03*
X254685D02*
D03*
D55*
X637685Y158000D02*
D03*
Y88000D02*
D03*
D56*
X588185Y164250D02*
D03*
Y147750D02*
D03*
Y131250D02*
D03*
Y114750D02*
D03*
Y98250D02*
D03*
Y81750D02*
D03*
X613185Y164250D02*
D03*
Y147750D02*
D03*
Y131250D02*
D03*
Y114750D02*
D03*
Y98250D02*
D03*
Y81750D02*
D03*
D57*
X182685Y65000D02*
D03*
X80185Y30000D02*
D03*
D58*
X172685Y65000D02*
D03*
X80185Y40000D02*
D03*
X90185Y30000D02*
D03*
Y40000D02*
D03*
X100185Y30000D02*
D03*
Y40000D02*
D03*
D59*
X531996Y24500D02*
D03*
X223925D02*
D03*
X20185D02*
D03*
X531996Y221350D02*
D03*
X223925D02*
D03*
X20185D02*
D03*
D60*
X233185Y88000D02*
D03*
X271685Y108000D02*
D03*
X258685D02*
D03*
X114185Y101500D02*
D03*
X416185Y163500D02*
D03*
X418185Y155000D02*
D03*
X416185Y184189D02*
D03*
X530573Y184000D02*
D03*
X517185Y189000D02*
D03*
X539185Y184189D02*
D03*
X136685Y137000D02*
D03*
Y141000D02*
D03*
X348185Y145000D02*
D03*
X139185Y129000D02*
D03*
X146685D02*
D03*
X136685Y133000D02*
D03*
X244374Y181000D02*
D03*
X249185Y177500D02*
D03*
X200685Y179500D02*
D03*
X169685Y184000D02*
D03*
X131685Y188500D02*
D03*
X183685Y169500D02*
D03*
X137685Y154500D02*
D03*
X334185Y192000D02*
D03*
X303685Y192500D02*
D03*
X271685Y187500D02*
D03*
X166185Y121000D02*
D03*
X506185Y177957D02*
D03*
X513685Y156500D02*
D03*
X462661Y193000D02*
D03*
X490685Y174500D02*
D03*
X528573Y127500D02*
D03*
X245685D02*
D03*
X300685Y148500D02*
D03*
X330185Y148150D02*
D03*
X129185Y148799D02*
D03*
X416185Y178350D02*
D03*
X109685Y95500D02*
D03*
X106185Y148799D02*
D03*
X102185Y138500D02*
D03*
X240685Y77500D02*
D03*
X301185Y157000D02*
D03*
X283185Y149000D02*
D03*
X278023Y157000D02*
D03*
X285685Y153000D02*
D03*
X69685Y171000D02*
D03*
Y139000D02*
D03*
X369685Y150114D02*
D03*
X371185Y157000D02*
D03*
X366185Y157500D02*
D03*
X269185Y149000D02*
D03*
X258185Y70000D02*
D03*
X113185Y132500D02*
D03*
X159185Y25000D02*
D03*
X128185Y51819D02*
D03*
X252185Y108000D02*
D03*
X246185Y121000D02*
D03*
X245685Y108000D02*
D03*
X233185Y108500D02*
D03*
X42685Y82500D02*
D03*
X47685Y143000D02*
D03*
X213185Y121000D02*
D03*
X549185D02*
D03*
X75185Y126000D02*
D03*
X47560Y121000D02*
D03*
X47310Y114500D02*
D03*
X254185Y164500D02*
D03*
X81685Y156500D02*
D03*
X65185Y179500D02*
D03*
X60185Y130500D02*
D03*
X316685Y157000D02*
D03*
X333185D02*
D03*
X121185Y100000D02*
D03*
X128685Y103000D02*
D03*
X414685Y198000D02*
D03*
X400835Y184500D02*
D03*
X425685Y192000D02*
D03*
Y169000D02*
D03*
X461685Y174500D02*
D03*
X302685Y70000D02*
D03*
X390685Y18500D02*
D03*
X334685Y55000D02*
D03*
Y43116D02*
D03*
X302685Y55000D02*
D03*
M02*
