M48
;Layer_Color=9474304
;FILE_FORMAT=2:5
INCH,TZ
;TYPE=PLATED
T1F00S00C0.01575
T2F00S00C0.03500
T3F00S00C0.03543
T4F00S00C0.04000
T5F00S00C0.04500
T6F00S00C0.11811
;TYPE=NON_PLATED
T7F00S00C0.16500
%
T01
X42685Y82500
X47310Y114500
X47560Y121000
X47685Y143000
X60185Y130500
X69685Y139000
X75185Y126000
X102185Y138500
X106185Y148799
X129185
X137685Y154500
X136685Y141000
Y137000
Y133000
X139185Y129000
X146685
X113185Y132500
X114185Y101500
X121185Y100000
X128685Y103000
X109685Y95500
X128185Y51819
X159185Y25000
X166185Y121000
X213185
X233185Y108500
X245685Y108000
X252185
X258685
X271685
X246185Y121000
X245685Y127500
X269185Y149000
X283185
X285685Y153000
X300685Y148500
X302685Y70000
Y55000
X258185Y70000
X240685Y77500
X233185Y88000
X334685Y55000
Y43116
X390685Y18500
X369685Y150114
X348185Y145000
X330185Y148150
X418185Y155000
X528573Y127500
X549185Y121000
X513685Y156500
X506185Y177957
X490685Y174500
X517185Y189000
X530573Y184000
X539185Y184189
X462661Y193000
X461685Y174500
X425685Y169000
X416185Y163500
Y178350
Y184189
X414685Y198000
X425685Y192000
X400835Y184500
X371185Y157000
X366185Y157500
X333185Y157000
X316685
X334185Y192000
X303685Y192500
X271685Y187500
X249185Y177500
X244374Y181000
X254185Y164500
X278023Y157000
X301185Y157000
X200685Y179500
X183685Y169500
X169685Y184000
X131685Y188500
X65185Y179500
X69685Y171000
X81685Y156500
T02
X254685Y34500
X264685
X294685
X304685
X314685
T03
X80185Y30000
Y40000
X90185
Y30000
X100185
Y40000
X172685Y65000
X182685
T04
X36685Y65035
Y76846
Y88657
Y100469
X48504
Y88657
Y76846
Y65035
X435779Y51819
X447590
Y40000
X435779
X484780
X496591
Y51819
X484780
X48504Y169500
Y181311
X36685
Y169500
T05
X588185Y81750
Y98250
Y114750
Y131250
Y147750
X613185
Y131250
Y114750
Y98250
Y81750
Y164250
X588185
T06
X19685Y73500
Y92004
X441685Y23000
X490685
X637685Y88000
Y158000
X19685Y175406
T07
X20185Y24500
X223925
X531996
Y221350
X223925
X20185
M30
