G04*
G04 #@! TF.GenerationSoftware,Altium Limited,Altium Designer,19.0.15 (446)*
G04*
G04 Layer_Color=8388736*
%FSLAX25Y25*%
%MOIN*%
G70*
G01*
G75*
%ADD23R,0.04343X0.04737*%
%ADD24R,0.04343X0.03556*%
%ADD25R,0.03937X0.03937*%
G04:AMPARAMS|DCode=26|XSize=29.65mil|YSize=57.21mil|CornerRadius=5.95mil|HoleSize=0mil|Usage=FLASHONLY|Rotation=90.000|XOffset=0mil|YOffset=0mil|HoleType=Round|Shape=RoundedRectangle|*
%AMROUNDEDRECTD26*
21,1,0.02965,0.04532,0,0,90.0*
21,1,0.01776,0.05721,0,0,90.0*
1,1,0.01190,0.02266,0.00888*
1,1,0.01190,0.02266,-0.00888*
1,1,0.01190,-0.02266,-0.00888*
1,1,0.01190,-0.02266,0.00888*
%
%ADD26ROUNDEDRECTD26*%
%ADD27R,0.04737X0.04343*%
%ADD28R,0.04540X0.11036*%
%ADD29R,0.11430X0.05328*%
%ADD30R,0.04737X0.10249*%
%ADD31R,0.13792X0.10249*%
%ADD32R,0.11036X0.05131*%
%ADD33R,0.03950X0.03950*%
%ADD34R,0.05131X0.05131*%
%ADD35R,0.22453X0.06706*%
%ADD36R,0.02769X0.02375*%
%ADD37O,0.10642X0.03556*%
G04:AMPARAMS|DCode=38|XSize=31.62mil|YSize=65.09mil|CornerRadius=6.01mil|HoleSize=0mil|Usage=FLASHONLY|Rotation=180.000|XOffset=0mil|YOffset=0mil|HoleType=Round|Shape=RoundedRectangle|*
%AMROUNDEDRECTD38*
21,1,0.03162,0.05307,0,0,180.0*
21,1,0.01961,0.06509,0,0,180.0*
1,1,0.01202,-0.00980,0.02653*
1,1,0.01202,0.00980,0.02653*
1,1,0.01202,0.00980,-0.02653*
1,1,0.01202,-0.00980,-0.02653*
%
%ADD38ROUNDEDRECTD38*%
%ADD39R,0.03556X0.04343*%
%ADD40R,0.06300X0.09800*%
%ADD41R,0.23202X0.25131*%
%ADD42R,0.03950X0.04343*%
%ADD43R,0.05131X0.05131*%
%ADD44O,0.07690X0.02965*%
%ADD45O,0.02965X0.07690*%
%ADD46R,0.03950X0.07493*%
%ADD47R,0.04698X0.06272*%
%ADD48R,0.22453X0.06706*%
%ADD49R,0.06902X0.03162*%
%ADD50R,0.06706X0.03162*%
%ADD51R,0.03937X0.03937*%
%ADD52C,0.13811*%
%ADD53C,0.08800*%
%ADD54C,0.06800*%
%ADD55C,0.19685*%
%ADD56C,0.09800*%
%ADD57R,0.06706X0.06706*%
%ADD58C,0.06706*%
%ADD59C,0.32300*%
%ADD60C,0.03556*%
D23*
X203835Y201500D02*
D03*
X197535D02*
D03*
X219535Y114500D02*
D03*
X225835D02*
D03*
X134835Y65523D02*
D03*
X128535D02*
D03*
X400835Y161500D02*
D03*
X394535D02*
D03*
X408535Y228311D02*
D03*
X414835D02*
D03*
X379035D02*
D03*
X385335D02*
D03*
D24*
X182685Y111256D02*
D03*
Y105744D02*
D03*
X174685Y111256D02*
D03*
Y105744D02*
D03*
X176185Y191744D02*
D03*
Y197256D02*
D03*
X193185Y133000D02*
D03*
Y138512D02*
D03*
X60185Y142756D02*
D03*
Y137244D02*
D03*
D25*
X182685Y96346D02*
D03*
Y89653D02*
D03*
X174685Y96346D02*
D03*
Y89653D02*
D03*
D26*
X211185Y164500D02*
D03*
Y169500D02*
D03*
Y174500D02*
D03*
Y179500D02*
D03*
Y184500D02*
D03*
Y189500D02*
D03*
Y194500D02*
D03*
X190516Y164500D02*
D03*
Y169500D02*
D03*
Y174500D02*
D03*
Y179500D02*
D03*
Y184500D02*
D03*
Y189500D02*
D03*
Y194500D02*
D03*
D27*
X176185Y178350D02*
D03*
Y184650D02*
D03*
X490492Y184650D02*
D03*
Y178350D02*
D03*
X63185Y83150D02*
D03*
Y76850D02*
D03*
Y64650D02*
D03*
Y58350D02*
D03*
Y100350D02*
D03*
Y106650D02*
D03*
X422992Y184650D02*
D03*
Y178350D02*
D03*
D28*
X483004Y174500D02*
D03*
X471980D02*
D03*
X483004Y188500D02*
D03*
X471980D02*
D03*
D29*
X345685Y43095D02*
D03*
Y54905D02*
D03*
X360531Y43126D02*
D03*
Y54937D02*
D03*
Y24126D02*
D03*
Y35937D02*
D03*
X405185Y43095D02*
D03*
Y54905D02*
D03*
Y24094D02*
D03*
Y35906D02*
D03*
X345685Y24189D02*
D03*
Y36000D02*
D03*
D30*
X219630Y128083D02*
D03*
X228685D02*
D03*
X237740D02*
D03*
D31*
X228685Y150917D02*
D03*
D32*
X203685Y133882D02*
D03*
Y144118D02*
D03*
D33*
X200232Y120000D02*
D03*
X206138D02*
D03*
D34*
X498492Y177957D02*
D03*
Y185043D02*
D03*
D35*
X379953Y215811D02*
D03*
X413417D02*
D03*
D36*
X305445Y147941D02*
D03*
Y153059D02*
D03*
X312925D02*
D03*
Y150500D02*
D03*
Y147941D02*
D03*
D37*
X270039Y70000D02*
D03*
Y65000D02*
D03*
Y60000D02*
D03*
Y55000D02*
D03*
X289331Y70000D02*
D03*
Y65000D02*
D03*
Y60000D02*
D03*
Y55000D02*
D03*
D38*
X390685Y50228D02*
D03*
X385685D02*
D03*
X380685D02*
D03*
X375685D02*
D03*
X390685Y28772D02*
D03*
X385685D02*
D03*
X380685D02*
D03*
X375685D02*
D03*
D39*
X336429Y168000D02*
D03*
X341941D02*
D03*
X326941Y157000D02*
D03*
X321429D02*
D03*
X306429Y168000D02*
D03*
X311941D02*
D03*
X296941Y157000D02*
D03*
X291429D02*
D03*
X179673Y25000D02*
D03*
X185185D02*
D03*
X138685D02*
D03*
X133173D02*
D03*
X276429Y167500D02*
D03*
X281941D02*
D03*
X451236Y164500D02*
D03*
X456748D02*
D03*
X451236Y199500D02*
D03*
X456748D02*
D03*
D40*
X322709Y187524D02*
D03*
X340661D02*
D03*
X292709D02*
D03*
X310661D02*
D03*
X262709D02*
D03*
X280661D02*
D03*
D41*
X331685Y212858D02*
D03*
X301685D02*
D03*
X271685D02*
D03*
D42*
X321533Y164063D02*
D03*
X329014D02*
D03*
X325274Y171937D02*
D03*
X291533Y164063D02*
D03*
X299014D02*
D03*
X295274Y171937D02*
D03*
X261945Y164063D02*
D03*
X269425D02*
D03*
X265685Y171937D02*
D03*
D43*
X74642Y147500D02*
D03*
X81728D02*
D03*
X81728Y139000D02*
D03*
X74642D02*
D03*
X74642Y179500D02*
D03*
X81728D02*
D03*
X81728Y171000D02*
D03*
X74642D02*
D03*
X139142Y188500D02*
D03*
X146228D02*
D03*
D44*
X120441Y129252D02*
D03*
Y132402D02*
D03*
Y135551D02*
D03*
Y138701D02*
D03*
Y141850D02*
D03*
Y145000D02*
D03*
Y148150D02*
D03*
Y151299D02*
D03*
Y154449D02*
D03*
Y157598D02*
D03*
Y160748D02*
D03*
X164929D02*
D03*
Y157598D02*
D03*
Y154449D02*
D03*
Y151299D02*
D03*
Y148150D02*
D03*
Y145000D02*
D03*
Y141850D02*
D03*
Y138701D02*
D03*
Y135551D02*
D03*
Y132402D02*
D03*
Y129252D02*
D03*
D45*
X126937Y167244D02*
D03*
X130087D02*
D03*
X133236D02*
D03*
X136386D02*
D03*
X139535D02*
D03*
X142685D02*
D03*
X145835D02*
D03*
X148984D02*
D03*
X152134D02*
D03*
X155283D02*
D03*
X158433D02*
D03*
Y122756D02*
D03*
X155283D02*
D03*
X152134D02*
D03*
X148984D02*
D03*
X145835D02*
D03*
X142685D02*
D03*
X139535D02*
D03*
X136386D02*
D03*
X133236D02*
D03*
X130087D02*
D03*
X126937D02*
D03*
D46*
X140878Y76000D02*
D03*
X127492D02*
D03*
D47*
X146213Y179500D02*
D03*
X152157D02*
D03*
D48*
X142453Y40500D02*
D03*
X175917D02*
D03*
D49*
X454185Y174311D02*
D03*
Y179311D02*
D03*
Y184311D02*
D03*
Y189311D02*
D03*
X432925Y174311D02*
D03*
Y179311D02*
D03*
Y184311D02*
D03*
Y189311D02*
D03*
D50*
X386925Y199311D02*
D03*
Y194311D02*
D03*
Y189311D02*
D03*
Y184311D02*
D03*
Y179311D02*
D03*
Y174311D02*
D03*
Y169311D02*
D03*
X408185Y199311D02*
D03*
Y194311D02*
D03*
Y189311D02*
D03*
Y184311D02*
D03*
Y179311D02*
D03*
Y174311D02*
D03*
Y169311D02*
D03*
D51*
X439685Y165000D02*
D03*
X432992D02*
D03*
X439839Y199500D02*
D03*
X433146D02*
D03*
D52*
X19685Y92004D02*
D03*
Y73500D02*
D03*
X490685Y23000D02*
D03*
X19685Y175406D02*
D03*
X441685Y23000D02*
D03*
D53*
X48504Y100469D02*
D03*
X36685D02*
D03*
X48504Y65035D02*
D03*
X36685D02*
D03*
Y76846D02*
D03*
Y88657D02*
D03*
X48504Y76846D02*
D03*
Y88657D02*
D03*
X496591Y40000D02*
D03*
X484780D02*
D03*
X496591Y51819D02*
D03*
X484780D02*
D03*
X36685Y169500D02*
D03*
Y181311D02*
D03*
X48504Y169500D02*
D03*
Y181311D02*
D03*
X447590Y40000D02*
D03*
X435779D02*
D03*
X447590Y51819D02*
D03*
X435779D02*
D03*
D54*
X294685Y34500D02*
D03*
X304685D02*
D03*
X314685D02*
D03*
X264685D02*
D03*
X254685D02*
D03*
D55*
X637685Y158000D02*
D03*
Y88000D02*
D03*
D56*
X588185Y164250D02*
D03*
Y147750D02*
D03*
Y131250D02*
D03*
Y114750D02*
D03*
Y98250D02*
D03*
Y81750D02*
D03*
X613185Y164250D02*
D03*
Y147750D02*
D03*
Y131250D02*
D03*
Y114750D02*
D03*
Y98250D02*
D03*
Y81750D02*
D03*
D57*
X182685Y65000D02*
D03*
X80185Y30000D02*
D03*
D58*
X172685Y65000D02*
D03*
X80185Y40000D02*
D03*
X90185Y30000D02*
D03*
Y40000D02*
D03*
X100185Y30000D02*
D03*
Y40000D02*
D03*
D59*
X531996Y24500D02*
D03*
X223925D02*
D03*
X20185D02*
D03*
X531996Y221350D02*
D03*
X223925D02*
D03*
X20185D02*
D03*
D60*
X233185Y88000D02*
D03*
X271685Y108000D02*
D03*
X258685D02*
D03*
X114185Y101500D02*
D03*
X416185Y163500D02*
D03*
X418185Y155000D02*
D03*
X416185Y184189D02*
D03*
X530573Y184000D02*
D03*
X517185Y189000D02*
D03*
X539185Y184189D02*
D03*
X136685Y137000D02*
D03*
Y141000D02*
D03*
X348185Y145000D02*
D03*
X139185Y129000D02*
D03*
X146685D02*
D03*
X136685Y133000D02*
D03*
X244374Y181000D02*
D03*
X249185Y177500D02*
D03*
X200685Y179500D02*
D03*
X169685Y184000D02*
D03*
X131685Y188500D02*
D03*
X183685Y169500D02*
D03*
X137685Y154500D02*
D03*
X334185Y192000D02*
D03*
X303685Y192500D02*
D03*
X271685Y187500D02*
D03*
X166185Y121000D02*
D03*
X506185Y177957D02*
D03*
X513685Y156500D02*
D03*
X462661Y193000D02*
D03*
X490685Y174500D02*
D03*
X528573Y127500D02*
D03*
X245685D02*
D03*
X300685Y148500D02*
D03*
X330185Y148150D02*
D03*
X129185Y148799D02*
D03*
X416185Y178350D02*
D03*
X109685Y95500D02*
D03*
X106185Y148799D02*
D03*
X102185Y138500D02*
D03*
X240685Y77500D02*
D03*
X301185Y157000D02*
D03*
X283185Y149000D02*
D03*
X278023Y157000D02*
D03*
X285685Y153000D02*
D03*
X69685Y171000D02*
D03*
Y139000D02*
D03*
X369685Y150114D02*
D03*
X371185Y157000D02*
D03*
X366185Y157500D02*
D03*
X269185Y149000D02*
D03*
X258185Y70000D02*
D03*
X113185Y132500D02*
D03*
X159185Y25000D02*
D03*
X128185Y51819D02*
D03*
X252185Y108000D02*
D03*
X246185Y121000D02*
D03*
X245685Y108000D02*
D03*
X233185Y108500D02*
D03*
X42685Y82500D02*
D03*
X47685Y143000D02*
D03*
X213185Y121000D02*
D03*
X549185D02*
D03*
X75185Y126000D02*
D03*
X47560Y121000D02*
D03*
X47310Y114500D02*
D03*
X254185Y164500D02*
D03*
X81685Y156500D02*
D03*
X65185Y179500D02*
D03*
X60185Y130500D02*
D03*
X316685Y157000D02*
D03*
X333185D02*
D03*
X121185Y100000D02*
D03*
X128685Y103000D02*
D03*
X414685Y198000D02*
D03*
X400835Y184500D02*
D03*
X425685Y192000D02*
D03*
Y169000D02*
D03*
X461685Y174500D02*
D03*
X302685Y70000D02*
D03*
X390685Y18500D02*
D03*
X334685Y55000D02*
D03*
Y43116D02*
D03*
X302685Y55000D02*
D03*
M02*
