G04*
G04 #@! TF.GenerationSoftware,Altium Limited,Altium Designer,19.0.15 (446)*
G04*
G04 Layer_Physical_Order=2*
G04 Layer_Color=16711680*
%FSLAX25Y25*%
%MOIN*%
G70*
G01*
G75*
%ADD88C,0.02000*%
%ADD89C,0.04000*%
%ADD90C,0.08000*%
%ADD91C,0.06000*%
%ADD92C,0.09000*%
%ADD93R,0.05906X0.05906*%
%ADD94C,0.05906*%
%ADD95C,0.31500*%
%ADD96C,0.02756*%
D88*
X477705Y177957D02*
X506185D01*
X462661Y193000D02*
X477705Y177957D01*
X106185Y88000D02*
X233185D01*
X101685Y92500D02*
X106185Y88000D01*
X258685Y108000D02*
X271685D01*
X105685Y101500D02*
X114185D01*
X101685Y97500D02*
X105685Y101500D01*
X101685Y92500D02*
Y97500D01*
X240685Y77500D02*
Y86355D01*
X231540Y95500D02*
X240685Y86355D01*
X109685Y95500D02*
X231540D01*
X416185Y163500D02*
Y178350D01*
X410685Y162500D02*
X418185Y155000D01*
X410685Y162500D02*
Y178689D01*
X416185Y184189D01*
X530185Y184000D02*
X530573D01*
X503155Y211030D02*
X530185Y184000D01*
X518185Y179500D02*
X614185D01*
X495636Y202049D02*
X518185Y179500D01*
X614185D02*
X622685Y171000D01*
X228770Y174311D02*
X244374D01*
X99496D02*
X228770D01*
X265489Y211030D02*
X503155D01*
X228770Y174311D02*
X265489Y211030D01*
X507874Y215500D02*
X539185Y184189D01*
X262185Y215500D02*
X507874D01*
X240185Y193500D02*
X262185Y215500D01*
X498685Y207000D02*
X516685Y189000D01*
X517185D01*
X270374Y207000D02*
X498685D01*
X79185Y193500D02*
X240185D01*
X65185Y179500D02*
X79185Y193500D01*
X134685Y129000D02*
X139185D01*
X129185Y134500D02*
X134685Y129000D01*
X136685Y137000D02*
X351185D01*
X136685Y141000D02*
X349685D01*
X366185Y157500D01*
X139185Y129000D02*
X146685D01*
X136685Y133000D02*
X352685D01*
X273734Y202049D02*
X495636D01*
X244374Y181000D02*
X270374Y207000D01*
X249185Y177500D02*
X273734Y202049D01*
X613185Y147750D02*
X622685Y157250D01*
Y171000D01*
X191685Y188500D02*
X200685Y179500D01*
X165185Y188500D02*
X191685D01*
X165185D02*
X169685Y184000D01*
X131685Y188500D02*
X165185D01*
X168685Y154500D02*
X183685Y169500D01*
X137685Y154500D02*
X168685D01*
X457661Y198000D02*
X462661Y193000D01*
X461685Y174500D02*
X490685D01*
X490685Y174500D01*
X113185Y132500D02*
Y140500D01*
X124685Y152000D01*
X351185Y137000D02*
X371185Y157000D01*
X133185Y152000D02*
X140213Y144972D01*
X124685Y152000D02*
X133185D01*
X369685Y150114D02*
X369799D01*
X352685Y133000D02*
X369799Y150114D01*
X300685Y148500D02*
X301035Y148150D01*
X330185D01*
X129185Y134500D02*
Y148799D01*
X140213Y144972D02*
X183685D01*
X347657Y144972D01*
X414685Y198000D02*
X457661D01*
X94685Y108500D02*
X233185D01*
X68831Y82647D02*
X94685Y108500D01*
X106185Y137500D02*
Y148799D01*
X99185Y130500D02*
X106185Y137500D01*
X70185Y138500D02*
X102185D01*
X69685Y139000D02*
X70185Y138500D01*
X43366Y82647D02*
X68831D01*
X286185Y157000D02*
X287185D01*
X278023D02*
X286185D01*
X286185Y157000D01*
X301185D01*
X347657Y144972D02*
X347685Y145000D01*
X283185Y149000D02*
X287185D01*
X289185Y151000D01*
Y155000D01*
X287185Y157000D02*
X289185Y155000D01*
X273185Y153000D02*
X285685D01*
X269185Y149000D02*
X273185Y153000D01*
X69685Y139000D02*
Y171000D01*
X252185Y70500D02*
X252685Y70000D01*
X258185D01*
X115185Y25000D02*
X159185D01*
X100185Y40000D02*
X115185Y25000D01*
X80185Y40000D02*
X92004Y51819D01*
X128185D01*
X43364Y82645D02*
X43366Y82647D01*
X42830Y82645D02*
X43364D01*
X42685Y82500D02*
X42830Y82645D01*
X47560Y121000D02*
X47685Y121125D01*
Y143000D01*
X57685Y126000D02*
X75185D01*
X53685Y130000D02*
X57685Y126000D01*
X244374Y174311D02*
X254185Y164500D01*
X81685Y156500D02*
X99496Y174311D01*
X65185Y162500D02*
Y179500D01*
X53685Y151000D02*
X65185Y162500D01*
X53685Y130000D02*
Y151000D01*
X60185Y130500D02*
X99185D01*
X316685Y157000D02*
X333185D01*
X121185Y100000D02*
X125685D01*
X128685Y103000D01*
X414335Y198000D02*
X414685D01*
X400835Y184500D02*
X414335Y198000D01*
X425685Y169000D02*
Y192000D01*
X322801Y55000D02*
X334685Y43116D01*
X302685Y55000D02*
X322801D01*
D89*
X387685Y177500D02*
X418185Y147000D01*
X348685Y177500D02*
X387685D01*
X334185Y192000D02*
X348685Y177500D01*
X418185Y147000D02*
X556685D01*
X303685Y192500D02*
X325185Y171000D01*
X271685Y187500D02*
X295122Y164063D01*
X166185Y121000D02*
X213185D01*
X47560D02*
X166185D01*
X506185Y164000D02*
Y177957D01*
Y164000D02*
X513685Y156500D01*
X245685Y127500D02*
X528573D01*
X325185Y171000D02*
X384435D01*
X564185Y139500D02*
X604935D01*
X556685Y147000D02*
X564185Y139500D01*
X415435Y140000D02*
X554185D01*
X384435Y171000D02*
X415435Y140000D01*
X412227Y133882D02*
X550303D01*
X382046Y164063D02*
X412227Y133882D01*
X295122Y164063D02*
X382046D01*
X550303Y133882D02*
X561185Y123000D01*
X252185Y70500D02*
Y108000D01*
Y47000D02*
Y70500D01*
X604935Y139500D02*
X613185Y131250D01*
X554185Y140000D02*
X562935Y131250D01*
X588185D01*
X561185Y123000D02*
X604935D01*
X613185Y114750D01*
X246185Y121000D02*
X549185D01*
X213185D02*
X246185D01*
X252185Y47000D02*
X264685Y34500D01*
X245685Y43500D02*
Y108000D01*
Y43500D02*
X254685Y34500D01*
X47310Y114500D02*
X587935D01*
X588185Y114750D01*
X319685Y70000D02*
X334685Y55000D01*
X302685Y70000D02*
X319685D01*
X371185Y18500D02*
X390685D01*
X334685Y55000D02*
X371185Y18500D01*
D90*
X48504Y100469D02*
D03*
X36685D02*
D03*
X48504Y65035D02*
D03*
X36685D02*
D03*
Y76846D02*
D03*
Y88657D02*
D03*
X48504Y76846D02*
D03*
Y88657D02*
D03*
X496591Y40000D02*
D03*
X484780D02*
D03*
X496591Y51819D02*
D03*
X484780D02*
D03*
X36685Y169500D02*
D03*
Y181311D02*
D03*
X48504Y169500D02*
D03*
Y181311D02*
D03*
X447590Y40000D02*
D03*
X435779D02*
D03*
X447590Y51819D02*
D03*
X435779D02*
D03*
D91*
X294685Y34500D02*
D03*
X304685D02*
D03*
X314685D02*
D03*
X264685D02*
D03*
X254685D02*
D03*
D92*
X588185Y164250D02*
D03*
Y147750D02*
D03*
Y131250D02*
D03*
Y114750D02*
D03*
Y98250D02*
D03*
Y81750D02*
D03*
X613185Y164250D02*
D03*
Y147750D02*
D03*
Y131250D02*
D03*
Y114750D02*
D03*
Y98250D02*
D03*
Y81750D02*
D03*
D93*
X182685Y65000D02*
D03*
X80185Y30000D02*
D03*
D94*
X172685Y65000D02*
D03*
X80185Y40000D02*
D03*
X90185Y30000D02*
D03*
Y40000D02*
D03*
X100185Y30000D02*
D03*
Y40000D02*
D03*
D95*
X531996Y24500D02*
D03*
X223925D02*
D03*
X20185D02*
D03*
X531996Y221350D02*
D03*
X223925D02*
D03*
X20185D02*
D03*
D96*
X233185Y88000D02*
D03*
X271685Y108000D02*
D03*
X258685D02*
D03*
X114185Y101500D02*
D03*
X416185Y163500D02*
D03*
X418185Y155000D02*
D03*
X416185Y184189D02*
D03*
X530573Y184000D02*
D03*
X517185Y189000D02*
D03*
X539185Y184189D02*
D03*
X136685Y137000D02*
D03*
Y141000D02*
D03*
X348185Y145000D02*
D03*
X139185Y129000D02*
D03*
X146685D02*
D03*
X136685Y133000D02*
D03*
X244374Y181000D02*
D03*
X249185Y177500D02*
D03*
X200685Y179500D02*
D03*
X169685Y184000D02*
D03*
X131685Y188500D02*
D03*
X183685Y169500D02*
D03*
X137685Y154500D02*
D03*
X334185Y192000D02*
D03*
X303685Y192500D02*
D03*
X271685Y187500D02*
D03*
X166185Y121000D02*
D03*
X506185Y177957D02*
D03*
X513685Y156500D02*
D03*
X462661Y193000D02*
D03*
X490685Y174500D02*
D03*
X528573Y127500D02*
D03*
X245685D02*
D03*
X300685Y148500D02*
D03*
X330185Y148150D02*
D03*
X129185Y148799D02*
D03*
X416185Y178350D02*
D03*
X109685Y95500D02*
D03*
X106185Y148799D02*
D03*
X102185Y138500D02*
D03*
X240685Y77500D02*
D03*
X301185Y157000D02*
D03*
X283185Y149000D02*
D03*
X278023Y157000D02*
D03*
X285685Y153000D02*
D03*
X69685Y171000D02*
D03*
Y139000D02*
D03*
X369685Y150114D02*
D03*
X371185Y157000D02*
D03*
X366185Y157500D02*
D03*
X269185Y149000D02*
D03*
X258185Y70000D02*
D03*
X113185Y132500D02*
D03*
X159185Y25000D02*
D03*
X128185Y51819D02*
D03*
X252185Y108000D02*
D03*
X246185Y121000D02*
D03*
X245685Y108000D02*
D03*
X233185Y108500D02*
D03*
X42685Y82500D02*
D03*
X47685Y143000D02*
D03*
X213185Y121000D02*
D03*
X549185D02*
D03*
X75185Y126000D02*
D03*
X47560Y121000D02*
D03*
X47310Y114500D02*
D03*
X254185Y164500D02*
D03*
X81685Y156500D02*
D03*
X65185Y179500D02*
D03*
X60185Y130500D02*
D03*
X316685Y157000D02*
D03*
X333185D02*
D03*
X121185Y100000D02*
D03*
X128685Y103000D02*
D03*
X414685Y198000D02*
D03*
X400835Y184500D02*
D03*
X425685Y192000D02*
D03*
Y169000D02*
D03*
X461685Y174500D02*
D03*
X302685Y70000D02*
D03*
X390685Y18500D02*
D03*
X334685Y55000D02*
D03*
Y43116D02*
D03*
X302685Y55000D02*
D03*
M02*
