G04*
G04 #@! TF.GenerationSoftware,Altium Limited,Altium Designer,19.0.15 (446)*
G04*
G04 Layer_Color=8388736*
%FSLAX25Y25*%
%MOIN*%
G70*
G01*
G75*
%ADD13C,0.01000*%
D13*
X279559Y105248D02*
X278572Y105186D01*
X277601Y105001D01*
X276660Y104695D01*
X275766Y104274D01*
X274931Y103744D01*
X274169Y103114D01*
X273492Y102393D01*
X272911Y101593D01*
X272434Y100727D01*
X272070Y99807D01*
X271825Y98849D01*
X271701Y97868D01*
Y96880D01*
X271825Y95899D01*
X272070Y94941D01*
X272434Y94021D01*
X272911Y93155D01*
X273492Y92355D01*
X274169Y91634D01*
X274931Y91004D01*
X275766Y90474D01*
X276660Y90053D01*
X277601Y89747D01*
X278572Y89562D01*
X279559Y89500D01*
X287433Y37000D02*
X287371Y37987D01*
X287186Y38958D01*
X286880Y39899D01*
X286459Y40793D01*
X285929Y41628D01*
X285299Y42390D01*
X284578Y43067D01*
X283778Y43648D01*
X282912Y44125D01*
X281992Y44489D01*
X281034Y44735D01*
X280053Y44859D01*
X279065D01*
X278084Y44735D01*
X277126Y44489D01*
X276206Y44125D01*
X275340Y43648D01*
X274540Y43067D01*
X273819Y42390D01*
X273189Y41628D01*
X272659Y40793D01*
X272238Y39899D01*
X271932Y38958D01*
X271747Y37987D01*
X271685Y37000D01*
X530185Y89500D02*
X531172Y89562D01*
X532143Y89747D01*
X533084Y90053D01*
X533978Y90474D01*
X534813Y91004D01*
X535575Y91634D01*
X536252Y92355D01*
X536833Y93155D01*
X537310Y94021D01*
X537674Y94941D01*
X537920Y95899D01*
X538043Y96880D01*
Y97869D01*
X537920Y98849D01*
X537674Y99807D01*
X537310Y100727D01*
X536833Y101593D01*
X536252Y102393D01*
X535575Y103114D01*
X534813Y103744D01*
X533978Y104274D01*
X533084Y104695D01*
X532143Y105001D01*
X531172Y105186D01*
X530185Y105248D01*
X500Y24500D02*
X525Y23503D01*
X601Y22509D01*
X727Y21519D01*
X903Y20537D01*
X1128Y19566D01*
X1403Y18607D01*
X1725Y17663D01*
X2095Y16737D01*
X2512Y15831D01*
X2974Y14947D01*
X3479Y14087D01*
X4028Y13255D01*
X4619Y12451D01*
X5249Y11678D01*
X5917Y10938D01*
X6623Y10232D01*
X7363Y9564D01*
X8136Y8934D01*
X8940Y8343D01*
X9772Y7794D01*
X10632Y7288D01*
X11516Y6827D01*
X12422Y6410D01*
X13348Y6040D01*
X14292Y5718D01*
X15251Y5443D01*
X16222Y5218D01*
X17204Y5042D01*
X18194Y4916D01*
X19188Y4840D01*
X20185Y4815D01*
Y241035D02*
X19188Y241010D01*
X18193Y240934D01*
X17204Y240808D01*
X16222Y240633D01*
X15251Y240407D01*
X14292Y240133D01*
X13348Y239810D01*
X12422Y239440D01*
X11516Y239024D01*
X10632Y238562D01*
X9772Y238056D01*
X8940Y237507D01*
X8136Y236917D01*
X7363Y236287D01*
X6623Y235618D01*
X5917Y234913D01*
X5249Y234173D01*
X4619Y233400D01*
X4028Y232596D01*
X3479Y231763D01*
X2974Y230904D01*
X2512Y230019D01*
X2095Y229113D01*
X1725Y228187D01*
X1403Y227243D01*
X1128Y226285D01*
X903Y225313D01*
X727Y224331D01*
X601Y223342D01*
X525Y222347D01*
X500Y221350D01*
X287433Y4815D02*
X677685D01*
X20185Y4815D02*
X20185Y4815D01*
X271685D01*
X677685D02*
Y241035D01*
X287433Y4815D02*
Y37000D01*
X271685Y4815D02*
Y37000D01*
X279559Y105248D02*
X530185Y105248D01*
X279559Y89500D02*
X530185Y89500D01*
X500Y24500D02*
Y221350D01*
X20185Y241035D02*
X677685Y241035D01*
M02*
