G04*
G04 #@! TF.GenerationSoftware,Altium Limited,Altium Designer,19.0.15 (446)*
G04*
G04 Layer_Physical_Order=1*
G04 Layer_Color=255*
%FSLAX25Y25*%
%MOIN*%
G70*
G01*
G75*
%ADD13C,0.01000*%
%ADD25R,0.03937X0.03937*%
%ADD51R,0.03937X0.03937*%
%ADD61R,0.03543X0.03937*%
%ADD62R,0.03543X0.02756*%
G04:AMPARAMS|DCode=63|XSize=21.65mil|YSize=49.21mil|CornerRadius=1.95mil|HoleSize=0mil|Usage=FLASHONLY|Rotation=90.000|XOffset=0mil|YOffset=0mil|HoleType=Round|Shape=RoundedRectangle|*
%AMROUNDEDRECTD63*
21,1,0.02165,0.04532,0,0,90.0*
21,1,0.01776,0.04921,0,0,90.0*
1,1,0.00390,0.02266,0.00888*
1,1,0.00390,0.02266,-0.00888*
1,1,0.00390,-0.02266,-0.00888*
1,1,0.00390,-0.02266,0.00888*
%
%ADD63ROUNDEDRECTD63*%
%ADD64R,0.03937X0.03543*%
%ADD65R,0.03740X0.10236*%
%ADD66R,0.10630X0.04528*%
%ADD67R,0.03937X0.09449*%
%ADD68R,0.12992X0.09449*%
%ADD69R,0.10236X0.04331*%
%ADD70R,0.03150X0.03150*%
%ADD71R,0.04331X0.04331*%
%ADD72R,0.21654X0.05906*%
%ADD73R,0.01968X0.01575*%
%ADD74O,0.09843X0.02756*%
G04:AMPARAMS|DCode=75|XSize=23.62mil|YSize=57.09mil|CornerRadius=2.01mil|HoleSize=0mil|Usage=FLASHONLY|Rotation=180.000|XOffset=0mil|YOffset=0mil|HoleType=Round|Shape=RoundedRectangle|*
%AMROUNDEDRECTD75*
21,1,0.02362,0.05307,0,0,180.0*
21,1,0.01961,0.05709,0,0,180.0*
1,1,0.00402,-0.00980,0.02653*
1,1,0.00402,0.00980,0.02653*
1,1,0.00402,0.00980,-0.02653*
1,1,0.00402,-0.00980,-0.02653*
%
%ADD75ROUNDEDRECTD75*%
%ADD76R,0.02756X0.03543*%
%ADD77R,0.05500X0.09000*%
%ADD78R,0.22402X0.24331*%
%ADD79R,0.03150X0.03543*%
%ADD80R,0.04331X0.04331*%
%ADD81O,0.06890X0.02165*%
%ADD82O,0.02165X0.06890*%
%ADD83R,0.03150X0.06693*%
%ADD84R,0.03898X0.05472*%
%ADD85R,0.21654X0.05906*%
%ADD86R,0.06102X0.02362*%
%ADD87R,0.05906X0.02362*%
%ADD88C,0.02000*%
%ADD89C,0.04000*%
%ADD90C,0.08000*%
%ADD91C,0.06000*%
%ADD92C,0.09000*%
%ADD93R,0.05906X0.05906*%
%ADD94C,0.05906*%
%ADD95C,0.31500*%
%ADD96C,0.02756*%
D13*
X312925Y150500D02*
X314685D01*
X312925Y153059D02*
Y154000D01*
D25*
X182685Y96346D02*
D03*
Y89653D02*
D03*
X174685Y96346D02*
D03*
Y89653D02*
D03*
D51*
X439685Y165000D02*
D03*
X432992D02*
D03*
X439839Y199500D02*
D03*
X433146D02*
D03*
D61*
X203835Y201500D02*
D03*
X197535D02*
D03*
X219535Y114500D02*
D03*
X225835D02*
D03*
X134835Y65523D02*
D03*
X128535D02*
D03*
X400835Y161500D02*
D03*
X394535D02*
D03*
X408535Y228311D02*
D03*
X414835D02*
D03*
X379035D02*
D03*
X385335D02*
D03*
D62*
X182685Y111256D02*
D03*
Y105744D02*
D03*
X174685Y111256D02*
D03*
Y105744D02*
D03*
X176185Y191744D02*
D03*
Y197256D02*
D03*
X193185Y133000D02*
D03*
Y138512D02*
D03*
X60185Y142756D02*
D03*
Y137244D02*
D03*
D63*
X211185Y164500D02*
D03*
Y169500D02*
D03*
Y174500D02*
D03*
Y179500D02*
D03*
Y184500D02*
D03*
Y189500D02*
D03*
Y194500D02*
D03*
X190516Y164500D02*
D03*
Y169500D02*
D03*
Y174500D02*
D03*
Y179500D02*
D03*
Y184500D02*
D03*
Y189500D02*
D03*
Y194500D02*
D03*
D64*
X176185Y178350D02*
D03*
Y184650D02*
D03*
X490492Y184650D02*
D03*
Y178350D02*
D03*
X63185Y83150D02*
D03*
Y76850D02*
D03*
Y64650D02*
D03*
Y58350D02*
D03*
Y100350D02*
D03*
Y106650D02*
D03*
X422992Y184650D02*
D03*
Y178350D02*
D03*
D65*
X483004Y174500D02*
D03*
X471980D02*
D03*
X483004Y188500D02*
D03*
X471980D02*
D03*
D66*
X345685Y43095D02*
D03*
Y54905D02*
D03*
X360531Y43126D02*
D03*
Y54937D02*
D03*
Y24126D02*
D03*
Y35937D02*
D03*
X405185Y43095D02*
D03*
Y54905D02*
D03*
Y24094D02*
D03*
Y35906D02*
D03*
X345685Y24189D02*
D03*
Y36000D02*
D03*
D67*
X219630Y128083D02*
D03*
X228685D02*
D03*
X237740D02*
D03*
D68*
X228685Y150917D02*
D03*
D69*
X203685Y133882D02*
D03*
Y144118D02*
D03*
D70*
X200232Y120000D02*
D03*
X206138D02*
D03*
D71*
X498492Y177957D02*
D03*
Y185043D02*
D03*
D72*
X379953Y215811D02*
D03*
X413417D02*
D03*
D73*
X305445Y147941D02*
D03*
Y153059D02*
D03*
X312925D02*
D03*
Y150500D02*
D03*
Y147941D02*
D03*
D74*
X270039Y70000D02*
D03*
Y65000D02*
D03*
Y60000D02*
D03*
Y55000D02*
D03*
X289331Y70000D02*
D03*
Y65000D02*
D03*
Y60000D02*
D03*
Y55000D02*
D03*
D75*
X390685Y50228D02*
D03*
X385685D02*
D03*
X380685D02*
D03*
X375685D02*
D03*
X390685Y28772D02*
D03*
X385685D02*
D03*
X380685D02*
D03*
X375685D02*
D03*
D76*
X336429Y168000D02*
D03*
X341941D02*
D03*
X326941Y157000D02*
D03*
X321429D02*
D03*
X306429Y168000D02*
D03*
X311941D02*
D03*
X296941Y157000D02*
D03*
X291429D02*
D03*
X179673Y25000D02*
D03*
X185185D02*
D03*
X138685D02*
D03*
X133173D02*
D03*
X276429Y167500D02*
D03*
X281941D02*
D03*
X451236Y164500D02*
D03*
X456748D02*
D03*
X451236Y199500D02*
D03*
X456748D02*
D03*
D77*
X322709Y187524D02*
D03*
X340661D02*
D03*
X292709D02*
D03*
X310661D02*
D03*
X262709D02*
D03*
X280661D02*
D03*
D78*
X331685Y212858D02*
D03*
X301685D02*
D03*
X271685D02*
D03*
D79*
X321533Y164063D02*
D03*
X329014D02*
D03*
X325274Y171937D02*
D03*
X291533Y164063D02*
D03*
X299014D02*
D03*
X295274Y171937D02*
D03*
X261945Y164063D02*
D03*
X269425D02*
D03*
X265685Y171937D02*
D03*
D80*
X74642Y147500D02*
D03*
X81728D02*
D03*
X81728Y139000D02*
D03*
X74642D02*
D03*
X74642Y179500D02*
D03*
X81728D02*
D03*
X81728Y171000D02*
D03*
X74642D02*
D03*
X139142Y188500D02*
D03*
X146228D02*
D03*
D81*
X120441Y129252D02*
D03*
Y132402D02*
D03*
Y135551D02*
D03*
Y138701D02*
D03*
Y141850D02*
D03*
Y145000D02*
D03*
Y148150D02*
D03*
Y151299D02*
D03*
Y154449D02*
D03*
Y157598D02*
D03*
Y160748D02*
D03*
X164929D02*
D03*
Y157598D02*
D03*
Y154449D02*
D03*
Y151299D02*
D03*
Y148150D02*
D03*
Y145000D02*
D03*
Y141850D02*
D03*
Y138701D02*
D03*
Y135551D02*
D03*
Y132402D02*
D03*
Y129252D02*
D03*
D82*
X126937Y167244D02*
D03*
X130087D02*
D03*
X133236D02*
D03*
X136386D02*
D03*
X139535D02*
D03*
X142685D02*
D03*
X145835D02*
D03*
X148984D02*
D03*
X152134D02*
D03*
X155283D02*
D03*
X158433D02*
D03*
Y122756D02*
D03*
X155283D02*
D03*
X152134D02*
D03*
X148984D02*
D03*
X145835D02*
D03*
X142685D02*
D03*
X139535D02*
D03*
X136386D02*
D03*
X133236D02*
D03*
X130087D02*
D03*
X126937D02*
D03*
D83*
X140878Y76000D02*
D03*
X127492D02*
D03*
D84*
X146213Y179500D02*
D03*
X152157D02*
D03*
D85*
X142453Y40500D02*
D03*
X175917D02*
D03*
D86*
X454185Y174311D02*
D03*
Y179311D02*
D03*
Y184311D02*
D03*
Y189311D02*
D03*
X432925Y174311D02*
D03*
Y179311D02*
D03*
Y184311D02*
D03*
Y189311D02*
D03*
D87*
X386925Y199311D02*
D03*
Y194311D02*
D03*
Y189311D02*
D03*
Y184311D02*
D03*
Y179311D02*
D03*
Y174311D02*
D03*
Y169311D02*
D03*
X408185Y199311D02*
D03*
Y194311D02*
D03*
Y189311D02*
D03*
Y184311D02*
D03*
Y179311D02*
D03*
Y174311D02*
D03*
Y169311D02*
D03*
D88*
X483004Y185755D02*
Y188500D01*
Y174500D02*
Y185755D01*
X238685Y88000D02*
X258685Y108000D01*
X233185Y88000D02*
X238685D01*
X297402Y133716D02*
X396902D01*
X271685Y108000D02*
X297402Y133716D01*
X294333Y138000D02*
X312567D01*
X240685Y84352D02*
X294333Y138000D01*
X240685Y77500D02*
Y84352D01*
X109185Y135500D02*
X115535Y141850D01*
X120441D01*
X109185Y129500D02*
Y135500D01*
Y129500D02*
X119185Y119500D01*
Y106500D02*
Y119500D01*
X114185Y101500D02*
X119185Y106500D01*
X396902Y133716D02*
X418185Y155000D01*
X374185Y138701D02*
X388685Y153201D01*
X379953Y151768D02*
Y171500D01*
X373185Y145000D02*
X379953Y151768D01*
X339634Y138701D02*
X374185D01*
X456685Y160000D02*
Y167500D01*
X379953Y171500D02*
X382656Y174204D01*
X416185Y163500D02*
X420023D01*
X412185D02*
X416185D01*
X416063Y184311D02*
X416185Y184189D01*
X408185Y184311D02*
X416063D01*
X530573Y183612D02*
X566435Y147750D01*
X530573Y183612D02*
Y184000D01*
X566435Y147750D02*
X588185D01*
X588435Y189000D02*
X613185Y164250D01*
X517185Y189000D02*
X588435D01*
X559124Y164250D02*
X588185D01*
X539185Y184189D02*
X559124Y164250D01*
X134185Y137000D02*
X136685D01*
X132185Y141000D02*
X136685D01*
X132797Y145000D02*
X142685D01*
X132768Y144972D02*
X132797Y145000D01*
X120469Y144972D02*
X132768D01*
X348185Y145000D02*
X373185D01*
X139185Y129000D02*
Y129296D01*
X146685Y129000D02*
Y140500D01*
X133236Y129551D02*
X136685Y133000D01*
X234185Y181000D02*
X244374D01*
X207685Y207500D02*
X234185Y181000D01*
X193185Y207500D02*
X207685D01*
X190516Y204831D02*
X193185Y207500D01*
X190516Y194500D02*
Y204831D01*
X232433Y160748D02*
X249185Y177500D01*
X203835Y160748D02*
X232433D01*
X195083Y169500D02*
X203835Y160748D01*
X190516Y169500D02*
X195083D01*
X211185D02*
Y174500D01*
Y164500D02*
Y169500D01*
X200685Y179500D02*
X211185D01*
X176185Y184650D02*
X180035D01*
X182685Y182000D01*
Y175437D02*
Y182000D01*
X176185Y184650D02*
X176185Y184650D01*
X169685Y184000D02*
X174563Y179122D01*
X175413D01*
X176185Y178350D01*
X131685Y188500D02*
X131685Y188500D01*
X139142D01*
X190516Y174500D02*
Y179500D01*
Y174500D02*
X211185D01*
Y179500D01*
Y184500D01*
X205972Y184650D02*
X209020D01*
X209087Y184583D01*
X211102D01*
X211185Y184500D01*
X203835Y186787D02*
X205972Y184650D01*
X203835Y186787D02*
Y201500D01*
X197535Y187000D02*
Y201500D01*
X195035Y184500D02*
X197535Y187000D01*
X190516Y184500D02*
X195035D01*
X176185Y197256D02*
X182685D01*
X185441Y194500D01*
X190516D01*
X176185Y184650D02*
Y191744D01*
X182435Y164500D02*
X190516D01*
X179185Y167750D02*
X182435Y164500D01*
X179185Y167750D02*
Y171937D01*
X182685Y175437D01*
X183685Y169500D02*
X190516D01*
X137634Y154449D02*
X137685Y154500D01*
X120441Y154449D02*
X137634D01*
X329661Y187524D02*
X340661D01*
X327259Y189926D02*
X329661Y187524D01*
X327259Y189926D02*
Y193926D01*
X325685Y195500D02*
X327259Y193926D01*
X315185Y195500D02*
X325685D01*
X299161Y187524D02*
X310661D01*
X298185Y188500D02*
X299161Y187524D01*
X298185Y188500D02*
Y192500D01*
X295185Y195500D02*
X298185Y192500D01*
X285185Y195500D02*
X295185D01*
X166185Y98153D02*
Y121000D01*
Y98153D02*
X174685Y89653D01*
X182685D01*
Y96346D02*
Y105744D01*
X174685Y96346D02*
Y105744D01*
Y111256D02*
Y133252D01*
X169236Y138701D02*
X174685Y133252D01*
X164929Y138701D02*
X169236D01*
X182685Y111256D02*
Y129500D01*
X170335Y141850D02*
X182685Y129500D01*
X164929Y141850D02*
X170335D01*
X456748Y196500D02*
Y199500D01*
X454248Y194000D02*
X456748Y196500D01*
X458972Y189311D02*
X462661Y193000D01*
X462685Y193024D01*
X483004Y189630D02*
X483874Y190500D01*
X483004Y188500D02*
Y189630D01*
X483874Y190500D02*
X493035D01*
X498492Y185043D01*
X490685Y174500D02*
Y178157D01*
X490492Y178350D02*
X490685Y178157D01*
X483004Y185755D02*
X483874Y184885D01*
X486619D01*
X486695Y184809D01*
X490333D01*
X490492Y184650D01*
X471980Y174500D02*
Y177245D01*
X471110Y178115D02*
X471980Y177245D01*
X468365Y178115D02*
X471110D01*
X467169Y179311D02*
X468365Y178115D01*
X454185Y179311D02*
X467169D01*
X471980Y185755D02*
Y188500D01*
X471110Y184885D02*
X471980Y185755D01*
X468365Y184885D02*
X471110D01*
X467791Y184311D02*
X468365Y184885D01*
X454185Y184311D02*
X467791D01*
X290744Y147941D02*
X305445D01*
X139185Y129296D02*
X139535Y128945D01*
X401886Y153201D02*
X412185Y163500D01*
X388685Y153201D02*
X401886D01*
X425024Y158500D02*
X455185D01*
X420023Y163500D02*
X425024Y158500D01*
X375685Y28772D02*
X380685D01*
X282411Y192726D02*
X285185Y195500D01*
X282411Y189274D02*
Y192726D01*
X280661Y187524D02*
X282411Y189274D01*
X312411Y192726D02*
X315185Y195500D01*
X312411Y189274D02*
Y192726D01*
X310661Y187524D02*
X312411Y189274D01*
X455185Y158500D02*
X456685Y160000D01*
X412468Y199217D02*
X417685Y194000D01*
X429685Y213000D02*
Y226000D01*
X414685Y198000D02*
X429685Y213000D01*
X422185Y233500D02*
X429685Y226000D01*
X410685Y233500D02*
X422185D01*
X409007Y231822D02*
X410685Y233500D01*
X409007Y228783D02*
Y231822D01*
X408535Y228311D02*
X409007Y228783D01*
X126937Y135752D02*
X132185Y141000D01*
X130087Y132902D02*
X134185Y137000D01*
X142685Y122756D02*
Y145000D01*
Y79518D02*
Y122756D01*
X133236D02*
Y129551D01*
Y101051D02*
Y122756D01*
X245685Y127500D02*
X254941D01*
X294185Y152000D02*
X304386D01*
X330185Y148150D02*
X339634Y138701D01*
X146685Y140500D02*
X151185Y145000D01*
X164929D01*
X139535Y122756D02*
Y128945D01*
X128535Y148150D02*
X129185Y148799D01*
X120441Y148150D02*
X128535D01*
X120441Y145000D02*
X120469Y144972D01*
X142685Y147941D02*
Y167244D01*
Y145000D02*
Y147941D01*
X142894Y148150D01*
X164929D01*
X388685Y153201D02*
X393768Y158284D01*
X416185Y178350D02*
X422992D01*
X96685Y141000D02*
X99638Y143953D01*
X96685Y135047D02*
Y141000D01*
Y135047D02*
X109685Y122047D01*
Y95500D02*
Y122047D01*
X106685Y143953D02*
X114032Y151299D01*
X120441D01*
X99638Y143953D02*
X106685D01*
X106185Y148799D02*
X111835Y154449D01*
X107185Y138500D02*
X113685Y145000D01*
X102185Y138500D02*
X107185D01*
X113685Y145000D02*
X120441D01*
X240685Y75500D02*
Y77500D01*
Y75500D02*
X256185Y60000D01*
X301185Y157000D02*
X312925D01*
X296941D02*
X301185D01*
Y157000D01*
X393768Y158284D02*
Y160733D01*
X394535Y161500D01*
X252185Y115000D02*
Y118000D01*
X283185Y149000D01*
X270960Y164063D02*
X278023Y157000D01*
X269425Y164063D02*
X270960D01*
X285685Y153000D02*
X290744Y147941D01*
X69685Y171000D02*
X74642D01*
X51627D02*
X69685D01*
Y139000D02*
X69685Y139000D01*
X74642D01*
X65185Y143000D02*
X69685Y147500D01*
X65185Y134500D02*
Y143000D01*
Y134500D02*
X70185Y129500D01*
X360185Y176000D02*
X373496Y189311D01*
X386925D01*
X360185Y155500D02*
Y176000D01*
Y155500D02*
X365571Y150114D01*
X369685D01*
X371185Y172047D02*
X378449Y179311D01*
X386925D01*
X371185Y157000D02*
Y172047D01*
X366185Y174000D02*
X376496Y184311D01*
X386925D01*
X366185Y157500D02*
Y174000D01*
X228685Y150917D02*
X230602Y149000D01*
X269185D01*
X281941Y154500D02*
Y167500D01*
X254941Y127500D02*
X281941Y154500D01*
X318398Y143831D02*
Y150500D01*
X314685D02*
X318398D01*
X312567Y138000D02*
X318398Y143831D01*
X256185Y60000D02*
X270039D01*
X187185Y138134D02*
X192413D01*
X187185Y124187D02*
Y138134D01*
X173185Y145000D02*
Y173000D01*
X192413Y138134D02*
X192791Y138512D01*
X187185Y124187D02*
X256372Y55000D01*
X270039D01*
X258185Y70000D02*
X270039D01*
X387827Y215811D02*
X389779Y213858D01*
X379953Y215811D02*
X387827D01*
X382656Y174204D02*
X386818D01*
X386925Y174311D01*
X126937Y122756D02*
Y135752D01*
X130087Y122756D02*
Y132902D01*
X113185Y132500D02*
X113284Y132402D01*
X120441D01*
X47685Y143000D02*
Y143204D01*
X48504Y144024D01*
Y169500D01*
X136185Y18500D02*
X138685Y21000D01*
Y25000D01*
X130185Y18500D02*
X136185D01*
X126937Y21748D02*
X130185Y18500D01*
X126937Y21748D02*
Y44500D01*
X140878Y58441D01*
Y76000D01*
X159185Y25000D02*
X179673D01*
X138685D02*
X159185D01*
X128185Y51819D02*
X134835Y58469D01*
Y65523D01*
X153685Y192500D02*
X173185Y173000D01*
X164929Y145000D02*
X173185D01*
X153685Y181815D02*
Y192500D01*
X152157Y180287D02*
X153685Y181815D01*
X152157Y179500D02*
Y180287D01*
X150685Y195500D02*
X153685Y192500D01*
X62693Y195500D02*
X150685D01*
X48504Y181311D02*
X62693Y195500D01*
X62682Y82647D02*
X63185Y83150D01*
X42832Y82647D02*
X62682D01*
X42685Y82500D02*
X42832Y82647D01*
X232685Y109204D02*
Y114500D01*
Y109204D02*
X233185Y108704D01*
Y108500D02*
Y108704D01*
X37031Y76846D02*
X42685Y82500D01*
X36685Y76846D02*
X37031D01*
X47560Y121000D02*
X54185D01*
X63185Y112000D01*
Y106650D02*
Y112000D01*
X47685Y143000D02*
X47929Y142756D01*
X60185D01*
X63185Y64650D02*
X75185Y76650D01*
Y126000D01*
X63067Y100469D02*
X63185Y100350D01*
X48504Y100469D02*
X63067D01*
X70185Y103000D02*
Y129500D01*
X254827Y164063D02*
X261945D01*
X254390Y164500D02*
X254827Y164063D01*
X254185Y164500D02*
X254390D01*
X74642Y149457D02*
X81685Y156500D01*
X74642Y147500D02*
Y149457D01*
X65185Y179500D02*
X74642D01*
X74642Y179500D01*
X69685Y147500D02*
X74642D01*
X74642Y147500D01*
X67535Y100350D02*
X70185Y103000D01*
X63185Y100350D02*
X67535D01*
X48504Y169500D02*
X50128D01*
X51627Y171000D01*
X81728Y179500D02*
X81728Y179500D01*
Y171000D02*
Y179500D01*
X81728Y147500D02*
X81728Y147500D01*
Y139000D02*
Y147500D01*
X91827Y157598D02*
X120441D01*
X81728Y147500D02*
X91827Y157598D01*
X81728Y171000D02*
X91980Y160748D01*
X120441D01*
X111835Y154449D02*
X120441D01*
X60185Y130500D02*
X60185Y130500D01*
Y137244D01*
X36441D02*
X60185D01*
X29185Y144500D02*
X36441Y137244D01*
X29185Y144500D02*
Y173811D01*
X36685Y181311D01*
X318398Y150500D02*
X321429Y153532D01*
X312925Y154000D02*
Y157000D01*
X316685D01*
X291807Y154378D02*
X294185Y152000D01*
X291807Y154378D02*
Y156622D01*
X304386Y152000D02*
X305445Y153059D01*
X291429Y157000D02*
X291807Y156622D01*
X316685Y157000D02*
X316685Y157000D01*
X327319D02*
X333185D01*
X327319D02*
Y157772D01*
X321429Y153532D02*
Y157000D01*
X327713Y157772D02*
X329014Y159073D01*
X327319Y157772D02*
X327713D01*
X329014Y159073D02*
Y164063D01*
X299014Y159073D02*
Y164063D01*
X297713Y157772D02*
X299014Y159073D01*
X297319Y157772D02*
X297713D01*
X296941Y157394D02*
X297319Y157772D01*
X296941Y157000D02*
Y157394D01*
X321429Y157000D02*
X321533Y157104D01*
Y164063D01*
X291429Y157000D02*
X291533Y157104D01*
Y164063D01*
X280661Y187524D02*
X281941Y186244D01*
Y167500D02*
Y186244D01*
X310661Y187524D02*
X311941Y186244D01*
Y168000D02*
Y186244D01*
X340661Y187524D02*
X341941Y186244D01*
Y168000D02*
Y186244D01*
X332492Y171937D02*
X335658Y168772D01*
X336051D01*
X336429Y168394D01*
Y168000D02*
Y168394D01*
X325274Y171937D02*
X332492D01*
X302492D02*
X305658Y168772D01*
X306051D01*
X306429Y168394D01*
Y168000D02*
Y168394D01*
X295274Y171937D02*
X302492D01*
X265685D02*
X271992D01*
X275658Y168272D01*
X276051D01*
X276429Y167894D01*
Y167500D02*
Y167894D01*
X262709Y185774D02*
Y187524D01*
Y185774D02*
X264459Y184024D01*
X264513D01*
X265685Y182852D01*
Y171937D02*
Y182852D01*
X292709Y185774D02*
Y187524D01*
Y185774D02*
X295274Y183209D01*
Y171937D02*
Y183209D01*
X322709Y185774D02*
Y187524D01*
Y185774D02*
X325274Y183209D01*
Y171937D02*
Y183209D01*
X454185Y189311D02*
X458972D01*
X139535Y96500D02*
Y122756D01*
X142685Y167244D02*
Y174311D01*
X139142Y177854D02*
X142685Y174311D01*
X139142Y177854D02*
Y188500D01*
X146213Y179500D02*
X146228Y179516D01*
Y188500D01*
X145835Y179122D02*
X146213Y179500D01*
X145835Y167244D02*
Y179122D01*
X30185Y68500D02*
X32502Y66184D01*
X35537D01*
X36685Y65035D01*
X30185Y68500D02*
Y85000D01*
X32695Y87509D01*
X35537D01*
X36685Y88657D01*
X43370Y58350D02*
X63185D01*
X36685Y65035D02*
X43370Y58350D01*
X63181Y76846D02*
X63185Y76850D01*
X48504Y76846D02*
X63181D01*
X48504Y65035D02*
X48890Y64650D01*
X63185D01*
X80185Y30000D02*
X85185Y35000D01*
Y64000D01*
X121185Y100000D01*
X90185Y63717D02*
X125307Y98839D01*
X90185Y40000D02*
Y63717D01*
X125307Y98839D02*
Y108779D01*
X126937Y110409D01*
Y122756D01*
X128685Y103000D02*
X130087Y104402D01*
Y122756D01*
X136386Y98000D02*
Y122756D01*
X134835Y91799D02*
X139535Y96500D01*
X95185Y63000D02*
X133236Y101051D01*
X127492Y89106D02*
X136386Y98000D01*
X145835Y42453D02*
Y122756D01*
X148984Y67433D02*
Y122756D01*
X141453Y78347D02*
X141513D01*
X139624Y40500D02*
X142453D01*
X148984Y67433D02*
X171136Y45281D01*
X141513Y78347D02*
X142685Y79518D01*
X142453Y40500D02*
X143882D01*
X140878Y76000D02*
Y77772D01*
X141453Y78347D01*
X95185Y35000D02*
Y63000D01*
X90185Y30000D02*
X95185Y35000D01*
X100185Y30000D02*
X128535Y58350D01*
Y65523D01*
Y73185D01*
X127492Y74228D02*
Y76000D01*
Y74228D02*
X128535Y73185D01*
X134835Y65523D02*
Y91799D01*
X127492Y76000D02*
Y89106D01*
X155283Y92402D02*
X182685Y65000D01*
X155283Y92402D02*
Y122756D01*
X152134Y85551D02*
Y122756D01*
Y85551D02*
X172685Y65000D01*
X143882Y40500D02*
X145835Y42453D01*
X171136D02*
Y45281D01*
Y42453D02*
X173089Y40500D01*
X175917D01*
X185185Y25000D02*
Y31232D01*
X180699Y35719D02*
X185185Y31232D01*
X180699Y35719D02*
Y38547D01*
X178746Y40500D02*
X180699Y38547D01*
X175917Y40500D02*
X178746D01*
X133173Y25000D02*
Y31220D01*
X137672Y35719D01*
Y38547D01*
X139624Y40500D01*
X454685Y169500D02*
X456685Y167500D01*
X449185Y169500D02*
X454685D01*
X445685Y173000D02*
X449185Y169500D01*
X445685Y173000D02*
Y190500D01*
X449185Y194000D01*
X454248D01*
X386925Y169311D02*
X388697D01*
X388878Y169130D01*
Y167157D02*
Y169130D01*
Y167157D02*
X393567Y162469D01*
X400835Y161500D02*
Y184500D01*
X385335Y228311D02*
X408535D01*
X379035Y216728D02*
X379953Y215811D01*
X379035Y216728D02*
Y228311D01*
X413417Y215811D02*
X414835Y217228D01*
Y228311D01*
X389779Y212405D02*
X396685Y205500D01*
X389779Y212405D02*
Y213858D01*
X396685Y196335D02*
Y205500D01*
Y196335D02*
X403709Y189311D01*
X408185D01*
X400835Y205500D02*
X406364Y211030D01*
Y213858D01*
X408317Y215811D01*
X413417D01*
X400835Y197500D02*
Y205500D01*
Y197500D02*
X403916Y194419D01*
X408077D01*
X408185Y194311D01*
X408279Y199217D02*
X412468D01*
X408185Y199311D02*
X408279Y199217D01*
X417685Y189957D02*
Y194000D01*
Y189957D02*
X422023Y185618D01*
Y185421D02*
Y185618D01*
Y185421D02*
X422795Y184650D01*
X422992D01*
X431055Y179311D02*
X432925D01*
X430094Y178350D02*
X431055Y179311D01*
X422992Y178350D02*
X430094D01*
X422992Y184650D02*
X423331Y184311D01*
X432925D01*
X425685Y192000D02*
X429702D01*
X430874Y190828D01*
Y189492D02*
Y190828D01*
Y189492D02*
X431055Y189311D01*
X432925D01*
X425374Y169311D02*
X425685Y169000D01*
X408185Y169311D02*
X425374D01*
X408185Y174311D02*
X432925D01*
X451236Y164500D02*
Y164622D01*
X450858Y165000D02*
X451236Y164622D01*
X439685Y165000D02*
X450858D01*
X432925Y174311D02*
X432992Y174244D01*
Y165000D02*
Y174244D01*
X432925Y189311D02*
Y199280D01*
X433146Y199500D01*
X439839D02*
X439839Y199500D01*
X451236D01*
X461496Y174311D02*
X461685Y174500D01*
X454185Y174311D02*
X461496D01*
X289331Y70000D02*
X302685D01*
X390685Y18500D02*
Y28772D01*
X345685Y43095D02*
Y47000D01*
X347685Y49000D01*
X369185D01*
X370413Y50228D01*
X375685D01*
X334685Y43116D02*
X345663D01*
X345685Y43095D01*
X289331Y55000D02*
X302685D01*
X376685Y60000D02*
X380685Y56000D01*
Y50228D02*
Y56000D01*
X289331Y60000D02*
X376685D01*
X385685Y54500D02*
X387685Y56500D01*
X385685Y50228D02*
Y54500D01*
X387685Y56500D02*
X393685D01*
X396185Y54000D01*
Y46500D02*
Y54000D01*
Y46500D02*
X398477Y44208D01*
X404072D01*
X405185Y43095D01*
X360531Y43126D02*
X386957D01*
X390504Y46673D01*
Y50047D01*
X390685Y50228D01*
D89*
X331685Y194500D02*
X334185Y192000D01*
X331685Y194500D02*
Y212858D01*
X301685Y194500D02*
X303685Y192500D01*
X301685Y194500D02*
Y212858D01*
X271685Y187500D02*
Y212858D01*
X498492Y177957D02*
X506185D01*
X513685Y156500D02*
X549185Y121000D01*
X471980Y170705D02*
X479185Y163500D01*
X471980Y170705D02*
Y174500D01*
X479185Y163500D02*
X520185D01*
X585435Y98250D01*
X471980Y192012D02*
X479185Y199217D01*
X471980Y188500D02*
Y192012D01*
X479185Y199217D02*
X497968D01*
X226913Y150917D02*
X228685Y149146D01*
X206138Y120000D02*
X214185D01*
X612228Y99207D02*
Y102957D01*
X592429Y122756D02*
X612228Y102957D01*
X574429Y122756D02*
X592429D01*
X612228Y99207D02*
X613185Y98250D01*
X497968Y199217D02*
X574429Y122756D01*
X585435Y98250D02*
X588185D01*
X238323Y127500D02*
X245685D01*
X331185Y213358D02*
X331685Y212858D01*
X173185Y145000D02*
X179673Y138512D01*
X192791D01*
X193185D01*
X252185Y108000D02*
Y115000D01*
X246185Y121000D02*
X252185Y115000D01*
X237740Y115945D02*
Y119555D01*
Y115945D02*
X245685Y108000D01*
X237740Y128083D02*
X238323Y127500D01*
X528573D02*
X583573Y72500D01*
X549185Y121000D02*
X588185Y82000D01*
X583573Y72500D02*
X603935D01*
X613185Y81750D01*
X219535Y114500D02*
Y120000D01*
Y124124D01*
X214185Y120000D02*
X219535D01*
X213185Y121000D02*
X214185Y120000D01*
X588185Y81750D02*
Y82000D01*
X41685Y121000D02*
X47560D01*
X29185Y108500D02*
X41685Y121000D01*
X29185Y96157D02*
Y108500D01*
Y96157D02*
X36685Y88657D01*
X46185Y114500D02*
X47310D01*
X37450Y105765D02*
X46185Y114500D01*
X37450Y101234D02*
Y105765D01*
X36685Y100469D02*
X37450Y101234D01*
X193185Y127047D02*
X200232Y120000D01*
X193185Y127047D02*
Y133000D01*
Y138512D02*
X198626Y143953D01*
X203520D01*
X203685Y144118D01*
X228685Y128083D02*
Y149146D01*
X224189Y148193D02*
X226913Y150917D01*
X224189Y146461D02*
Y148193D01*
X221846Y144118D02*
X224189Y146461D01*
X203685Y144118D02*
X221846D01*
X206138Y120000D02*
Y133716D01*
X205972Y133882D02*
X206138Y133716D01*
X203685Y133882D02*
X205972D01*
X219598Y128051D02*
X219630Y128083D01*
X219598Y124187D02*
Y128051D01*
X219535Y124124D02*
X219598Y124187D01*
X232685Y114500D02*
X237740Y119555D01*
Y128083D01*
X225835Y114500D02*
X232685D01*
X334685Y54905D02*
X345685D01*
X329090D02*
X334685D01*
Y55000D01*
X314685Y40500D02*
X329090Y54905D01*
X314685Y34500D02*
Y40500D01*
X345685Y54905D02*
X345717Y54937D01*
X360531D01*
X345685Y24189D02*
X345748Y24126D01*
X360531D01*
X298685Y24189D02*
X345685D01*
X294685Y28189D02*
X298685Y24189D01*
X294685Y28189D02*
Y34500D01*
X457185Y12000D02*
X497185D01*
X431610D02*
X457185D01*
Y30406D01*
X447590Y40000D02*
X457185Y30406D01*
X496591Y40000D02*
X505685Y30906D01*
Y20500D02*
Y30906D01*
X497185Y12000D02*
X505685Y20500D01*
X419516Y24094D02*
X431610Y12000D01*
X405185Y24094D02*
X419516D01*
X436545Y55360D02*
X441185Y60000D01*
X436545Y52584D02*
Y55360D01*
X435779Y51819D02*
X436545Y52584D01*
X441185Y60000D02*
X476598D01*
X484780Y51819D01*
X434697D02*
X435779D01*
X431610Y54905D02*
X434697Y51819D01*
X405185Y54905D02*
X431610D01*
X484780Y40000D02*
Y51819D01*
X435779Y40000D02*
Y51819D01*
X447590Y40000D02*
Y51819D01*
X496591Y40000D02*
Y51819D01*
X405185Y35906D02*
Y43095D01*
X360531Y35937D02*
Y43126D01*
X345685Y36000D02*
Y43095D01*
D90*
X48504Y100469D02*
D03*
X36685D02*
D03*
X48504Y65035D02*
D03*
X36685D02*
D03*
Y76846D02*
D03*
Y88657D02*
D03*
X48504Y76846D02*
D03*
Y88657D02*
D03*
X496591Y40000D02*
D03*
X484780D02*
D03*
X496591Y51819D02*
D03*
X484780D02*
D03*
X36685Y169500D02*
D03*
Y181311D02*
D03*
X48504Y169500D02*
D03*
Y181311D02*
D03*
X447590Y40000D02*
D03*
X435779D02*
D03*
X447590Y51819D02*
D03*
X435779D02*
D03*
D91*
X294685Y34500D02*
D03*
X304685D02*
D03*
X314685D02*
D03*
X264685D02*
D03*
X254685D02*
D03*
D92*
X588185Y164250D02*
D03*
Y147750D02*
D03*
Y131250D02*
D03*
Y114750D02*
D03*
Y98250D02*
D03*
Y81750D02*
D03*
X613185Y164250D02*
D03*
Y147750D02*
D03*
Y131250D02*
D03*
Y114750D02*
D03*
Y98250D02*
D03*
Y81750D02*
D03*
D93*
X182685Y65000D02*
D03*
X80185Y30000D02*
D03*
D94*
X172685Y65000D02*
D03*
X80185Y40000D02*
D03*
X90185Y30000D02*
D03*
Y40000D02*
D03*
X100185Y30000D02*
D03*
Y40000D02*
D03*
D95*
X531996Y24500D02*
D03*
X223925D02*
D03*
X20185D02*
D03*
X531996Y221350D02*
D03*
X223925D02*
D03*
X20185D02*
D03*
D96*
X233185Y88000D02*
D03*
X271685Y108000D02*
D03*
X258685D02*
D03*
X114185Y101500D02*
D03*
X416185Y163500D02*
D03*
X418185Y155000D02*
D03*
X416185Y184189D02*
D03*
X530573Y184000D02*
D03*
X517185Y189000D02*
D03*
X539185Y184189D02*
D03*
X136685Y137000D02*
D03*
Y141000D02*
D03*
X348185Y145000D02*
D03*
X139185Y129000D02*
D03*
X146685D02*
D03*
X136685Y133000D02*
D03*
X244374Y181000D02*
D03*
X249185Y177500D02*
D03*
X200685Y179500D02*
D03*
X169685Y184000D02*
D03*
X131685Y188500D02*
D03*
X183685Y169500D02*
D03*
X137685Y154500D02*
D03*
X334185Y192000D02*
D03*
X303685Y192500D02*
D03*
X271685Y187500D02*
D03*
X166185Y121000D02*
D03*
X506185Y177957D02*
D03*
X513685Y156500D02*
D03*
X462661Y193000D02*
D03*
X490685Y174500D02*
D03*
X528573Y127500D02*
D03*
X245685D02*
D03*
X300685Y148500D02*
D03*
X330185Y148150D02*
D03*
X129185Y148799D02*
D03*
X416185Y178350D02*
D03*
X109685Y95500D02*
D03*
X106185Y148799D02*
D03*
X102185Y138500D02*
D03*
X240685Y77500D02*
D03*
X301185Y157000D02*
D03*
X283185Y149000D02*
D03*
X278023Y157000D02*
D03*
X285685Y153000D02*
D03*
X69685Y171000D02*
D03*
Y139000D02*
D03*
X369685Y150114D02*
D03*
X371185Y157000D02*
D03*
X366185Y157500D02*
D03*
X269185Y149000D02*
D03*
X258185Y70000D02*
D03*
X113185Y132500D02*
D03*
X159185Y25000D02*
D03*
X128185Y51819D02*
D03*
X252185Y108000D02*
D03*
X246185Y121000D02*
D03*
X245685Y108000D02*
D03*
X233185Y108500D02*
D03*
X42685Y82500D02*
D03*
X47685Y143000D02*
D03*
X213185Y121000D02*
D03*
X549185D02*
D03*
X75185Y126000D02*
D03*
X47560Y121000D02*
D03*
X47310Y114500D02*
D03*
X254185Y164500D02*
D03*
X81685Y156500D02*
D03*
X65185Y179500D02*
D03*
X60185Y130500D02*
D03*
X316685Y157000D02*
D03*
X333185D02*
D03*
X121185Y100000D02*
D03*
X128685Y103000D02*
D03*
X414685Y198000D02*
D03*
X400835Y184500D02*
D03*
X425685Y192000D02*
D03*
Y169000D02*
D03*
X461685Y174500D02*
D03*
X302685Y70000D02*
D03*
X390685Y18500D02*
D03*
X334685Y55000D02*
D03*
Y43116D02*
D03*
X302685Y55000D02*
D03*
M02*
