G04*
G04 #@! TF.GenerationSoftware,Altium Limited,Altium Designer,19.0.15 (446)*
G04*
G04 Layer_Color=65535*
%FSLAX25Y25*%
%MOIN*%
G70*
G01*
G75*
%ADD10C,0.00800*%
%ADD11C,0.02362*%
%ADD12C,0.00984*%
%ADD13C,0.01000*%
%ADD14C,0.00787*%
%ADD15C,0.01575*%
%ADD16C,0.00600*%
%ADD17R,0.00650X0.02300*%
%ADD18R,0.06700X0.01800*%
%ADD19R,0.00730X0.02560*%
%ADD20R,0.02300X0.00650*%
%ADD21R,0.01800X0.06700*%
%ADD22R,0.02560X0.00730*%
D10*
X184785Y86694D02*
X185635Y87543D01*
X179735D02*
X180585Y86694D01*
X185635Y98455D02*
X184785Y99305D01*
X180585D02*
X179735Y98455D01*
X176785Y86694D02*
X177635Y87543D01*
X171735D02*
X172585Y86694D01*
X177635Y98455D02*
X176785Y99305D01*
X172585D02*
X171735Y98455D01*
X430033Y162900D02*
X430883Y162050D01*
Y167950D02*
X430033Y167100D01*
X441794Y162050D02*
X442644Y162900D01*
Y167100D02*
X441794Y167950D01*
X430186Y197400D02*
X431036Y196550D01*
Y202450D02*
X430186Y201600D01*
X441948Y196550D02*
X442798Y197400D01*
Y201600D02*
X441948Y202450D01*
X180585Y86694D02*
X184785D01*
X180585Y99305D02*
X184785D01*
X185635Y87543D02*
Y98455D01*
X179735Y87543D02*
Y98455D01*
X172585Y86694D02*
X176785D01*
X172585Y99305D02*
X176785D01*
X177635Y87543D02*
Y98455D01*
X171735Y87543D02*
Y98455D01*
X430033Y162900D02*
Y167100D01*
X442644Y162900D02*
Y167100D01*
X430883Y162050D02*
X441794D01*
X430883Y167950D02*
X441794D01*
X430186Y197400D02*
Y201600D01*
X442798Y197400D02*
Y201600D01*
X431036Y196550D02*
X441948D01*
X431036Y202450D02*
X441948D01*
X109517Y42998D02*
X107851Y42165D01*
X106185Y40499D01*
Y38833D01*
X107018Y38000D01*
X108684D01*
X109517Y38833D01*
Y39666D01*
X108684Y40499D01*
X106185D01*
X109517Y32998D02*
X106185D01*
Y30499D01*
X107851Y31332D01*
X108684D01*
X109517Y30499D01*
Y28833D01*
X108684Y28000D01*
X107018D01*
X106185Y28833D01*
X73517Y38000D02*
X70185D01*
X73517Y41332D01*
Y42165D01*
X72684Y42998D01*
X71018D01*
X70185Y42165D01*
X72185Y28000D02*
X73851D01*
X73018D01*
Y32998D01*
X72185Y32165D01*
D11*
X199669Y192886D02*
X199225Y193809D01*
X198225Y194037D01*
X197424Y193398D01*
Y192373D01*
X198225Y191734D01*
X199225Y191962D01*
X199669Y192886D01*
X378461Y37138D02*
X378016Y38061D01*
X377017Y38289D01*
X376215Y37650D01*
Y36625D01*
X377017Y35986D01*
X378016Y36214D01*
X378461Y37138D01*
X130677Y131811D02*
X130233Y132734D01*
X129233Y132963D01*
X128432Y132324D01*
Y131299D01*
X129233Y130659D01*
X130233Y130888D01*
X130677Y131811D01*
D12*
X191008Y197748D02*
X190270Y198174D01*
Y197322D01*
X191008Y197748D01*
X215988Y128083D02*
X215250Y128509D01*
Y127656D01*
X215988Y128083D01*
X313417Y144988D02*
X312679Y145414D01*
Y144562D01*
X313417Y144988D01*
X289823Y51457D02*
X289085Y51883D01*
Y51030D01*
X289823Y51457D01*
X372831Y28772D02*
X372093Y29198D01*
Y28345D01*
X372831Y28772D01*
X318285Y187465D02*
X317547Y187891D01*
Y187038D01*
X318285Y187465D01*
X318285Y164063D02*
X317547Y164489D01*
Y163637D01*
X318285Y164063D01*
X288285Y187465D02*
X287547Y187891D01*
Y187038D01*
X288285Y187465D01*
X288285Y164063D02*
X287547Y164489D01*
Y163637D01*
X288285Y164063D01*
X124181Y122756D02*
X123443Y123182D01*
Y122330D01*
X124181Y122756D01*
X145110Y76000D02*
X144372Y76426D01*
Y75574D01*
X145110Y76000D01*
X129953Y40500D02*
X129215Y40926D01*
Y40074D01*
X129953Y40500D01*
X258285Y187465D02*
X257547Y187891D01*
Y187038D01*
X258285Y187465D01*
X258697Y164063D02*
X257959Y164489D01*
Y163637D01*
X258697Y164063D01*
D13*
X442305Y191811D02*
X442671Y190927D01*
X443555Y190561D01*
X444439Y190927D01*
X444805Y191811D01*
X398805Y166811D02*
X398439Y167695D01*
X397555Y168061D01*
X396671Y167695D01*
X396305Y166811D01*
X540185Y97374D02*
X547685Y89874D01*
X261185Y88099D02*
X269685Y96599D01*
X298185Y44275D02*
Y87000D01*
X261185Y44000D02*
Y88099D01*
X547685Y39500D02*
Y89874D01*
X516185Y39500D02*
Y87000D01*
X85185Y17500D02*
X95185D01*
Y22500D01*
X85185Y17500D02*
Y22500D01*
X376685Y223811D02*
X417185D01*
X376685Y207811D02*
X417185D01*
X1685Y51752D02*
Y113752D01*
X56685Y59130D02*
Y106374D01*
X1685Y51752D02*
X40685D01*
X1685Y113752D02*
X40685D01*
X471685Y5000D02*
X509685D01*
X478874Y60000D02*
X502496D01*
X509685Y5000D02*
Y44000D01*
X471685Y5000D02*
Y44000D01*
X1685Y156405D02*
Y194405D01*
X56685Y163594D02*
Y187216D01*
X1685Y156405D02*
X40685D01*
X1685Y194405D02*
X40685D01*
X422685Y5000D02*
X460685D01*
X429874Y60000D02*
X453496D01*
X460685Y5000D02*
Y44000D01*
X422685Y5000D02*
Y44000D01*
X246685Y39500D02*
X322685D01*
X246685Y11500D02*
X322685D01*
X246685D02*
Y39500D01*
X322685Y11500D02*
Y39500D01*
X677685Y88000D02*
Y158000D01*
X439476Y176811D02*
Y186811D01*
Y191811D01*
Y171811D02*
Y176811D01*
X436925Y193811D02*
X437425D01*
X439476Y171811D02*
X447634D01*
Y191811D01*
X444805D02*
X447634D01*
X439476D02*
X442305D01*
X401732Y166811D02*
Y201811D01*
X393378D02*
X401732D01*
X393378Y166811D02*
Y201811D01*
Y166811D02*
X396305D01*
X398805D02*
X401732D01*
X405185Y166311D02*
X405685D01*
X60684Y227500D02*
Y231498D01*
X59684Y232498D01*
X57685D01*
X56685Y231498D01*
Y227500D01*
X57685Y226500D01*
X59684D01*
X58684Y228499D02*
X60684Y226500D01*
X59684D02*
X60684Y227500D01*
X62683Y232498D02*
Y227500D01*
X63683Y226500D01*
X65682D01*
X66682Y227500D01*
Y232498D01*
X68681D02*
X72680D01*
X70680D01*
Y226500D01*
X80677D02*
Y232498D01*
X82677Y230499D01*
X84676Y232498D01*
Y226500D01*
X87675D02*
X89674D01*
X90674Y227500D01*
Y229499D01*
X89674Y230499D01*
X87675D01*
X86675Y229499D01*
Y227500D01*
X87675Y226500D01*
X93673Y231498D02*
Y230499D01*
X92673D01*
X94673D01*
X93673D01*
Y227500D01*
X94673Y226500D01*
X98672D02*
X100671D01*
X101671Y227500D01*
Y229499D01*
X100671Y230499D01*
X98672D01*
X97672Y229499D01*
Y227500D01*
X98672Y226500D01*
X103670Y230499D02*
Y226500D01*
Y228499D01*
X104669Y229499D01*
X105669Y230499D01*
X106669D01*
X109668Y226500D02*
X112667D01*
X113667Y227500D01*
X112667Y228499D01*
X110668D01*
X109668Y229499D01*
X110668Y230499D01*
X113667D01*
X115666Y224501D02*
Y230499D01*
X118665D01*
X119665Y229499D01*
Y227500D01*
X118665Y226500D01*
X115666D01*
X122664D02*
X124663D01*
X125663Y227500D01*
Y229499D01*
X124663Y230499D01*
X122664D01*
X121664Y229499D01*
Y227500D01*
X122664Y226500D01*
X127662Y230499D02*
Y226500D01*
Y228499D01*
X128662Y229499D01*
X129661Y230499D01*
X130661D01*
X134660Y231498D02*
Y230499D01*
X133660D01*
X135660D01*
X134660D01*
Y227500D01*
X135660Y226500D01*
X60684Y206000D02*
X56685D01*
X60684Y209999D01*
Y210998D01*
X59684Y211998D01*
X57685D01*
X56685Y210998D01*
X62683D02*
X63683Y211998D01*
X65682D01*
X66682Y210998D01*
Y207000D01*
X65682Y206000D01*
X63683D01*
X62683Y207000D01*
Y210998D01*
X68681Y206000D02*
X70680D01*
X69681D01*
Y211998D01*
X68681Y210998D01*
X73680Y207000D02*
X74679Y206000D01*
X76679D01*
X77678Y207000D01*
Y210998D01*
X76679Y211998D01*
X74679D01*
X73680Y210998D01*
Y209999D01*
X74679Y208999D01*
X77678D01*
X85676Y206000D02*
Y211998D01*
X88675D01*
X89674Y210998D01*
Y208999D01*
X88675Y207999D01*
X85676D01*
X87675D02*
X89674Y206000D01*
X94673D02*
X92673D01*
X91674Y207000D01*
Y208999D01*
X92673Y209999D01*
X94673D01*
X95672Y208999D01*
Y207999D01*
X91674D01*
X97672Y209999D02*
X99671Y206000D01*
X101671Y209999D01*
X109668Y206000D02*
Y209999D01*
X111667Y211998D01*
X113667Y209999D01*
Y206000D01*
Y208999D01*
X109668D01*
X56685Y221998D02*
Y216000D01*
Y218999D01*
X60684D01*
Y221998D01*
Y216000D01*
X62683Y221998D02*
Y217999D01*
X64682Y216000D01*
X66682Y217999D01*
Y221998D01*
X74679D02*
Y216000D01*
X77678D01*
X78678Y217000D01*
Y217999D01*
X77678Y218999D01*
X74679D01*
X77678D01*
X78678Y219999D01*
Y220998D01*
X77678Y221998D01*
X74679D01*
X81677Y216000D02*
X83676D01*
X84676Y217000D01*
Y218999D01*
X83676Y219999D01*
X81677D01*
X80677Y218999D01*
Y217000D01*
X81677Y216000D01*
X87675Y219999D02*
X89674D01*
X90674Y218999D01*
Y216000D01*
X87675D01*
X86675Y217000D01*
X87675Y217999D01*
X90674D01*
X92673Y219999D02*
Y216000D01*
Y217999D01*
X93673Y218999D01*
X94673Y219999D01*
X95672D01*
X102670Y221998D02*
Y216000D01*
X99671D01*
X98672Y217000D01*
Y218999D01*
X99671Y219999D01*
X102670D01*
X110668Y221998D02*
Y217999D01*
X112667Y216000D01*
X114666Y217999D01*
Y221998D01*
X116666Y216000D02*
X118665D01*
X117665D01*
Y221998D01*
X116666Y220998D01*
X275185Y84498D02*
X276185Y85498D01*
X278184D01*
X279184Y84498D01*
Y83499D01*
X278184Y82499D01*
X279184Y81499D01*
Y80500D01*
X278184Y79500D01*
X276185D01*
X275185Y80500D01*
Y81499D01*
X276185Y82499D01*
X275185Y83499D01*
Y84498D01*
X276185Y82499D02*
X278184D01*
X281183Y79500D02*
Y83499D01*
X282183D01*
X283183Y82499D01*
Y79500D01*
Y82499D01*
X284182Y83499D01*
X285182Y82499D01*
Y79500D01*
X287181D02*
Y83499D01*
X288181D01*
X289180Y82499D01*
Y79500D01*
Y82499D01*
X290180Y83499D01*
X291180Y82499D01*
Y79500D01*
X370185Y82998D02*
Y77000D01*
Y79999D01*
X374184D01*
Y82998D01*
Y77000D01*
X376183Y82998D02*
Y78999D01*
X378183Y77000D01*
X380182Y78999D01*
Y82998D01*
X388179D02*
X390179D01*
X389179D01*
Y77000D01*
X388179D01*
X390179D01*
X397176Y81998D02*
X396177Y82998D01*
X394177D01*
X393178Y81998D01*
Y80999D01*
X394177Y79999D01*
X396177D01*
X397176Y78999D01*
Y78000D01*
X396177Y77000D01*
X394177D01*
X393178Y78000D01*
X402175Y82998D02*
X400175D01*
X399176Y81998D01*
Y78000D01*
X400175Y77000D01*
X402175D01*
X403174Y78000D01*
Y81998D01*
X402175Y82998D01*
X411172D02*
X415170D01*
Y81998D01*
X411172Y78000D01*
Y77000D01*
X415170D01*
X420169Y82998D02*
X418169D01*
X417170Y81998D01*
Y78000D01*
X418169Y77000D01*
X420169D01*
X421169Y78000D01*
Y81998D01*
X420169Y82998D01*
X423168Y77000D02*
Y82998D01*
X427167Y77000D01*
Y82998D01*
X433165D02*
X429166D01*
Y77000D01*
X433165D01*
X429166Y79999D02*
X431165D01*
X529187Y57500D02*
X528187Y58500D01*
Y60499D01*
X529187Y61499D01*
X530186D01*
X531186Y60499D01*
X532186Y61499D01*
X533185D01*
X534185Y60499D01*
Y58500D01*
X533185Y57500D01*
X532186D01*
X531186Y58500D01*
X530186Y57500D01*
X529187D01*
X531186Y58500D02*
Y60499D01*
X534185Y63498D02*
X530186D01*
Y64498D01*
X531186Y65497D01*
X534185D01*
X531186D01*
X530186Y66497D01*
X531186Y67497D01*
X534185D01*
Y69496D02*
X530186D01*
Y70496D01*
X531186Y71495D01*
X534185D01*
X531186D01*
X530186Y72495D01*
X531186Y73495D01*
X534185D01*
X497684Y78500D02*
Y84498D01*
X494685Y81499D01*
X498684D01*
X500683Y78500D02*
Y82499D01*
X501683D01*
X502682Y81499D01*
Y78500D01*
Y81499D01*
X503682Y82499D01*
X504682Y81499D01*
Y78500D01*
X506681D02*
Y82499D01*
X507681D01*
X508680Y81499D01*
Y78500D01*
Y81499D01*
X509680Y82499D01*
X510680Y81499D01*
Y78500D01*
X190185Y67498D02*
Y62500D01*
X191185Y61500D01*
X193184D01*
X194184Y62500D01*
Y67498D01*
X196183Y61500D02*
Y65499D01*
X198182Y67498D01*
X200182Y65499D01*
Y61500D01*
Y64499D01*
X196183D01*
X202181Y61500D02*
Y67498D01*
X205180D01*
X206180Y66498D01*
Y64499D01*
X205180Y63499D01*
X202181D01*
X204181D02*
X206180Y61500D01*
X208179Y67498D02*
X212178D01*
X210179D01*
Y61500D01*
X4185Y151998D02*
Y146000D01*
X8184D01*
X14182Y151998D02*
X10183D01*
Y146000D01*
X14182D01*
X10183Y148999D02*
X12183D01*
X16181Y146000D02*
Y151998D01*
X18180Y149999D01*
X20180Y151998D01*
Y146000D01*
X4185Y123998D02*
X6184D01*
X5185D01*
Y118000D01*
X4185D01*
X6184D01*
X9183D02*
Y123998D01*
X11183Y121999D01*
X13182Y123998D01*
Y118000D01*
X15181Y123998D02*
Y118000D01*
X18180D01*
X19180Y119000D01*
Y122998D01*
X18180Y123998D01*
X15181D01*
X655683Y151000D02*
X649685D01*
Y148001D01*
X650685Y147001D01*
X654683D01*
X655683Y148001D01*
Y151000D01*
Y145002D02*
Y141003D01*
Y143003D01*
X649685D01*
Y139004D02*
X655683D01*
X653684Y137004D01*
X655683Y135005D01*
X649685D01*
Y133006D02*
Y131007D01*
Y132006D01*
X655683D01*
X654683Y133006D01*
Y128007D02*
X655683Y127008D01*
Y125008D01*
X654683Y124009D01*
X653684D01*
X652684Y125008D01*
Y126008D01*
Y125008D01*
X651684Y124009D01*
X650685D01*
X649685Y125008D01*
Y127008D01*
X650685Y128007D01*
X652684Y122009D02*
Y118011D01*
X649685Y116011D02*
Y114012D01*
Y115012D01*
X655683D01*
X654683Y116011D01*
X649685Y107014D02*
Y111013D01*
X653684Y107014D01*
X654683D01*
X655683Y108014D01*
Y110013D01*
X654683Y111013D01*
X649685Y105015D02*
X655683D01*
Y102016D01*
X654683Y101016D01*
X652684D01*
X651684Y102016D01*
Y105015D01*
X649685Y99017D02*
X653684D01*
X655683Y97018D01*
X653684Y95018D01*
X649685D01*
X652684D01*
Y99017D01*
D14*
X200488Y199925D02*
X200882D01*
X200488Y203075D02*
X200882D01*
X181307Y108303D02*
Y108697D01*
X184063Y108303D02*
Y108697D01*
X173307Y108303D02*
Y108697D01*
X176063Y108303D02*
Y108697D01*
X194551Y162276D02*
X207150D01*
X194551Y196724D02*
X207150D01*
Y162276D02*
Y196724D01*
X194551Y162276D02*
Y196724D01*
X177760Y181303D02*
Y181697D01*
X174610Y181303D02*
Y181697D01*
X177563Y194303D02*
Y194697D01*
X174807Y194303D02*
Y194697D01*
X475327Y169776D02*
X479657D01*
X475327Y179224D02*
X479657D01*
X475327Y183776D02*
X479657D01*
X475327Y193224D02*
X479657D01*
X340764Y46835D02*
Y51165D01*
X350606Y46835D02*
Y51165D01*
X355610Y46866D02*
Y51197D01*
X365453Y46866D02*
Y51197D01*
X355610Y27866D02*
Y32197D01*
X365453Y27866D02*
Y32197D01*
X400264Y46835D02*
Y51165D01*
X410106Y46835D02*
Y51165D01*
X400264Y27835D02*
Y32165D01*
X410106Y27835D02*
Y32165D01*
X340764Y27929D02*
Y32260D01*
X350606Y27929D02*
Y32260D01*
X215496Y133988D02*
X241874D01*
X215496Y145012D02*
X241874D01*
X215496Y133988D02*
Y145012D01*
X241874Y133988D02*
Y145012D01*
X194563Y135559D02*
Y135953D01*
X191807Y135559D02*
Y135953D01*
X198961Y137622D02*
Y140378D01*
X208410Y137622D02*
Y140378D01*
X222488Y116075D02*
X222882D01*
X222488Y112925D02*
X222882D01*
X496720Y181303D02*
Y181697D01*
X500264Y181303D02*
Y181697D01*
X488917Y181303D02*
Y181697D01*
X492067Y181303D02*
Y181697D01*
X308004Y146169D02*
Y154831D01*
X310366Y146169D02*
Y154831D01*
X308004D02*
X310366D01*
X308004Y146169D02*
X310366D01*
X276535Y72342D02*
X282835D01*
X276535Y52658D02*
X282835D01*
X276535D02*
Y72342D01*
X282835Y52658D02*
Y72342D01*
X393028Y33201D02*
Y45799D01*
X373342Y33201D02*
Y45799D01*
X393028D01*
X373342Y33201D02*
X393028D01*
X338988Y166622D02*
X339382D01*
X338988Y169378D02*
X339382D01*
X318496Y193539D02*
Y199118D01*
Y193539D02*
X344874D01*
Y199118D01*
X319368Y167213D02*
Y170756D01*
X322124D01*
X331179Y167213D02*
Y170756D01*
X328423D02*
X331179D01*
X323988Y158378D02*
X324382D01*
X323988Y155622D02*
X324382D01*
X308988Y166622D02*
X309382D01*
X308988Y169378D02*
X309382D01*
X288496Y193539D02*
Y199118D01*
Y193539D02*
X314874D01*
Y199118D01*
X289368Y167213D02*
Y170756D01*
X292124D01*
X301179Y167213D02*
Y170756D01*
X298423D02*
X301179D01*
X293988Y158378D02*
X294382D01*
X293988Y155622D02*
X294382D01*
X77988Y149272D02*
X78382D01*
X77988Y145728D02*
X78382D01*
X159811Y127874D02*
Y162126D01*
X125559Y127874D02*
Y162126D01*
X159811D01*
X125559Y127874D02*
X159811D01*
X77988Y137228D02*
X78382D01*
X77988Y140772D02*
X78382D01*
X167685Y60000D02*
Y70000D01*
X187685D01*
Y60000D02*
Y70000D01*
X167685Y60000D02*
X187685D01*
X131488Y67097D02*
X131882D01*
X131488Y63948D02*
X131882D01*
X77988Y181272D02*
X78382D01*
X77988Y177728D02*
X78382D01*
X128279Y71079D02*
X140091D01*
X128279Y80921D02*
X140091D01*
X77988Y169228D02*
X78382D01*
X77988Y172772D02*
X78382D01*
X142488Y190272D02*
X142882D01*
X142488Y186728D02*
X142882D01*
X105185Y25000D02*
Y45000D01*
X75185Y25000D02*
Y45000D01*
X105185D01*
X75185Y25000D02*
X105185D01*
X86018D02*
X105185D01*
X137335Y50008D02*
X181035D01*
X137335Y30992D02*
X181035D01*
X137335D02*
Y35972D01*
Y45028D02*
Y50008D01*
X181035Y30992D02*
Y35972D01*
Y45028D02*
Y50008D01*
X182232Y26378D02*
X182626D01*
X182232Y23622D02*
X182626D01*
X135732Y23622D02*
X136126D01*
X135732Y26378D02*
X136126D01*
X58807Y139803D02*
Y140197D01*
X61563Y139803D02*
Y140197D01*
X61610Y79803D02*
Y80197D01*
X64760Y79803D02*
Y80197D01*
X278988Y166122D02*
X279382D01*
X278988Y168878D02*
X279382D01*
X258496Y193539D02*
Y199118D01*
Y193539D02*
X284874D01*
Y199118D01*
X61610Y61303D02*
Y61697D01*
X64760Y61303D02*
Y61697D01*
Y103303D02*
Y103697D01*
X61610Y103303D02*
Y103697D01*
X259937Y167350D02*
Y170559D01*
X262535D01*
X271433Y167350D02*
Y170559D01*
X268835D02*
X271433D01*
X424567Y181303D02*
Y181697D01*
X421417Y181303D02*
Y181697D01*
X453795Y163122D02*
X454189D01*
X453795Y165878D02*
X454189D01*
X453795Y198122D02*
X454189D01*
X453795Y200878D02*
X454189D01*
X397488Y159925D02*
X397882D01*
X397488Y163075D02*
X397882D01*
X411488Y229886D02*
X411882D01*
X411488Y226736D02*
X411882D01*
X381988Y229886D02*
X382382D01*
X381988Y226736D02*
X382382D01*
D15*
X209681Y118425D02*
Y121575D01*
D16*
X170185Y54500D02*
Y57699D01*
X171784D01*
X172318Y57166D01*
Y56099D01*
X171784Y55566D01*
X170185D01*
X171251D02*
X172318Y54500D01*
X173384Y57699D02*
X175517Y54500D01*
Y57699D02*
X173384Y54500D01*
X179782Y57699D02*
X181915D01*
X180848D01*
Y54500D01*
X182981Y57699D02*
X185114Y54500D01*
Y57699D02*
X182981Y54500D01*
X249185Y14000D02*
Y17199D01*
X250784D01*
X251318Y16666D01*
Y15599D01*
X250784Y15066D01*
X249185D01*
X250251D02*
X251318Y14000D01*
X252384D02*
Y17199D01*
X253983D01*
X254517Y16666D01*
Y15599D01*
X253983Y15066D01*
X252384D01*
X258782Y14000D02*
X259848D01*
X259315D01*
Y17199D01*
X258782Y16666D01*
X263580Y14000D02*
X261448D01*
X263580Y16133D01*
Y16666D01*
X263047Y17199D01*
X261981D01*
X261448Y16666D01*
X264647Y14000D02*
X265713D01*
X265180D01*
Y17199D01*
X264647Y16666D01*
X269445Y14000D02*
X267313D01*
X269445Y16133D01*
Y16666D01*
X268912Y17199D01*
X267846D01*
X267313Y16666D01*
X270512Y15599D02*
X272644D01*
X275843Y16666D02*
X275310Y17199D01*
X274244D01*
X273710Y16666D01*
Y16133D01*
X274244Y15599D01*
X275310D01*
X275843Y15066D01*
Y14533D01*
X275310Y14000D01*
X274244D01*
X273710Y14533D01*
X675884Y138500D02*
X672685D01*
Y136900D01*
X673218Y136367D01*
X673751D01*
X674285Y136900D01*
Y138500D01*
Y136900D01*
X674818Y136367D01*
X675351D01*
X675884Y136900D01*
Y138500D01*
X672685Y134768D02*
Y133702D01*
X673218Y133168D01*
X674285D01*
X674818Y133702D01*
Y134768D01*
X674285Y135301D01*
X673218D01*
X672685Y134768D01*
X674818Y131569D02*
Y130503D01*
X674285Y129969D01*
X672685D01*
Y131569D01*
X673218Y132102D01*
X673751Y131569D01*
Y129969D01*
X674818Y128903D02*
X672685D01*
X673751D01*
X674285Y128370D01*
X674818Y127837D01*
Y127304D01*
X675884Y123572D02*
X672685D01*
Y125171D01*
X673218Y125704D01*
X674285D01*
X674818Y125171D01*
Y123572D01*
X675884Y117174D02*
Y119306D01*
X672685D01*
Y117174D01*
X674285Y119306D02*
Y118240D01*
X675884Y113975D02*
X672685D01*
Y115574D01*
X673218Y116107D01*
X674285D01*
X674818Y115574D01*
Y113975D01*
X671619Y111842D02*
Y111309D01*
X672152Y110776D01*
X674818D01*
Y112375D01*
X674285Y112908D01*
X673218D01*
X672685Y112375D01*
Y110776D01*
Y108110D02*
Y109176D01*
X673218Y109709D01*
X674285D01*
X674818Y109176D01*
Y108110D01*
X674285Y107577D01*
X673751D01*
Y109709D01*
X586685Y173500D02*
Y172434D01*
Y172967D01*
X589884D01*
X589351Y173500D01*
X203469Y192518D02*
X204136Y191851D01*
X205469D01*
X206135Y192518D01*
Y195184D01*
X205469Y195850D01*
X204136D01*
X203469Y195184D01*
X199470Y195850D02*
X202136D01*
X199470Y193184D01*
Y192518D01*
X200137Y191851D01*
X201470D01*
X202136Y192518D01*
X188200Y205349D02*
Y202016D01*
X188867Y201350D01*
X190200D01*
X190866Y202016D01*
Y205349D01*
X192199Y202016D02*
X192866Y201350D01*
X194199D01*
X194865Y202016D01*
Y204682D01*
X194199Y205349D01*
X192866D01*
X192199Y204682D01*
Y204016D01*
X192866Y203349D01*
X194865D01*
X191585Y103200D02*
X187586D01*
Y105199D01*
X188253Y105866D01*
X189586D01*
X190252Y105199D01*
Y103200D01*
Y104533D02*
X191585Y105866D01*
X188253Y107199D02*
X187586Y107865D01*
Y109198D01*
X188253Y109864D01*
X188919D01*
X189586Y109198D01*
Y108532D01*
Y109198D01*
X190252Y109864D01*
X190919D01*
X191585Y109198D01*
Y107865D01*
X190919Y107199D01*
X188253Y111197D02*
X187586Y111864D01*
Y113197D01*
X188253Y113863D01*
X190919D01*
X191585Y113197D01*
Y111864D01*
X190919Y111197D01*
X188253D01*
X169785Y103196D02*
X165786D01*
Y105195D01*
X166453Y105861D01*
X167786D01*
X168452Y105195D01*
Y103196D01*
Y104528D02*
X169785Y105861D01*
Y109860D02*
Y107194D01*
X167119Y109860D01*
X166453D01*
X165786Y109194D01*
Y107861D01*
X166453Y107194D01*
X169119Y111193D02*
X169785Y111859D01*
Y113192D01*
X169119Y113859D01*
X166453D01*
X165786Y113192D01*
Y111859D01*
X166453Y111193D01*
X167119D01*
X167786Y111859D01*
Y113859D01*
X174535Y201750D02*
Y205749D01*
X176534D01*
X177201Y205082D01*
Y203749D01*
X176534Y203083D01*
X174535D01*
X175868D02*
X177201Y201750D01*
X181200D02*
X178534D01*
X181200Y204416D01*
Y205082D01*
X180533Y205749D01*
X179200D01*
X178534Y205082D01*
X182533D02*
X183199Y205749D01*
X184532D01*
X185198Y205082D01*
Y204416D01*
X184532Y203749D01*
X185198Y203083D01*
Y202416D01*
X184532Y201750D01*
X183199D01*
X182533Y202416D01*
Y203083D01*
X183199Y203749D01*
X182533Y204416D01*
Y205082D01*
X183199Y203749D02*
X184532D01*
X181835Y186950D02*
X185834D01*
Y184951D01*
X185167Y184284D01*
X183834D01*
X183168Y184951D01*
Y186950D01*
Y185617D02*
X181835Y184284D01*
Y180286D02*
Y182951D01*
X184501Y180286D01*
X185167D01*
X185834Y180952D01*
Y182285D01*
X185167Y182951D01*
X185834Y178953D02*
Y176287D01*
X185167D01*
X182501Y178953D01*
X181835D01*
X188586Y85100D02*
X192585D01*
Y87766D01*
X188586Y91764D02*
Y89099D01*
X192585D01*
Y91764D01*
X190586Y89099D02*
Y90432D01*
X188586Y93097D02*
X192585D01*
Y95097D01*
X191919Y95763D01*
X189253D01*
X188586Y95097D01*
Y93097D01*
X192585Y99095D02*
X188586D01*
X190586Y97096D01*
Y99762D01*
X164786Y85100D02*
X168785D01*
Y87766D01*
X164786Y91764D02*
Y89099D01*
X168785D01*
Y91764D01*
X166786Y89099D02*
Y90432D01*
X164786Y93097D02*
X168785D01*
Y95097D01*
X168119Y95763D01*
X165453D01*
X164786Y95097D01*
Y93097D01*
X165453Y97096D02*
X164786Y97763D01*
Y99095D01*
X165453Y99762D01*
X166119D01*
X166786Y99095D01*
Y98429D01*
Y99095D01*
X167452Y99762D01*
X168119D01*
X168785Y99095D01*
Y97763D01*
X168119Y97096D01*
X339885Y61000D02*
Y64999D01*
X341884D01*
X342551Y64332D01*
Y62999D01*
X341884Y62333D01*
X339885D01*
X341218D02*
X342551Y61000D01*
X346550D02*
X343884D01*
X346550Y63666D01*
Y64332D01*
X345883Y64999D01*
X344550D01*
X343884Y64332D01*
X347883D02*
X348549Y64999D01*
X349882D01*
X350548Y64332D01*
Y63666D01*
X349882Y62999D01*
X349215D01*
X349882D01*
X350548Y62333D01*
Y61666D01*
X349882Y61000D01*
X348549D01*
X347883Y61666D01*
X339885Y14100D02*
Y18099D01*
X341884D01*
X342551Y17432D01*
Y16099D01*
X341884Y15433D01*
X339885D01*
X341218D02*
X342551Y14100D01*
X346550D02*
X343884D01*
X346550Y16766D01*
Y17432D01*
X345883Y18099D01*
X344550D01*
X343884Y17432D01*
X347883D02*
X348549Y18099D01*
X349882D01*
X350548Y17432D01*
Y14766D01*
X349882Y14100D01*
X348549D01*
X347883Y14766D01*
Y17432D01*
X214985Y163299D02*
Y159967D01*
X215651Y159300D01*
X216984D01*
X217651Y159967D01*
Y163299D01*
X218984Y162632D02*
X219650Y163299D01*
X220983D01*
X221650Y162632D01*
Y161966D01*
X220983Y161299D01*
X221650Y160633D01*
Y159967D01*
X220983Y159300D01*
X219650D01*
X218984Y159967D01*
Y160633D01*
X219650Y161299D01*
X218984Y161966D01*
Y162632D01*
X219650Y161299D02*
X220983D01*
X191485Y124500D02*
Y128499D01*
X193484D01*
X194151Y127832D01*
Y126499D01*
X193484Y125833D01*
X191485D01*
X192818D02*
X194151Y124500D01*
X198150D02*
X195484D01*
X198150Y127166D01*
Y127832D01*
X197483Y128499D01*
X196150D01*
X195484Y127832D01*
X202148Y128499D02*
X200815Y127832D01*
X199483Y126499D01*
Y125166D01*
X200149Y124500D01*
X201482D01*
X202148Y125166D01*
Y125833D01*
X201482Y126499D01*
X199483D01*
X198785Y114999D02*
Y111000D01*
X200784D01*
X201451Y111667D01*
Y114332D01*
X200784Y114999D01*
X198785D01*
X205450Y114332D02*
X204783Y114999D01*
X203450D01*
X202784Y114332D01*
Y113666D01*
X203450Y112999D01*
X204783D01*
X205450Y112333D01*
Y111667D01*
X204783Y111000D01*
X203450D01*
X202784Y111667D01*
X206783Y111000D02*
X208115D01*
X207449D01*
Y114999D01*
X206783Y114332D01*
X201151Y152732D02*
X200484Y153399D01*
X199152D01*
X198485Y152732D01*
Y150066D01*
X199152Y149400D01*
X200484D01*
X201151Y150066D01*
X202484Y149400D02*
X203817D01*
X203150D01*
Y153399D01*
X202484Y152732D01*
X207815Y149400D02*
Y153399D01*
X205816Y151399D01*
X208482D01*
X219951Y108232D02*
X219284Y108899D01*
X217951D01*
X217285Y108232D01*
Y105567D01*
X217951Y104900D01*
X219284D01*
X219951Y105567D01*
X221284Y104900D02*
X222617D01*
X221950D01*
Y108899D01*
X221284Y108232D01*
X224616D02*
X225283Y108899D01*
X226615D01*
X227282Y108232D01*
Y107566D01*
X226615Y106899D01*
X225949D01*
X226615D01*
X227282Y106233D01*
Y105567D01*
X226615Y104900D01*
X225283D01*
X224616Y105567D01*
X369285Y204699D02*
X371951Y200700D01*
Y204699D02*
X369285Y200700D01*
X373284D02*
X374617D01*
X373950D01*
Y204699D01*
X373284Y204032D01*
X4451Y48699D02*
X3118D01*
X3784D01*
Y45366D01*
X3118Y44700D01*
X2451D01*
X1785Y45366D01*
X5784Y44700D02*
X7117D01*
X6450D01*
Y48699D01*
X5784Y48032D01*
X119185Y42499D02*
X121851Y38500D01*
Y42499D02*
X119185Y38500D01*
X125849D02*
X123184D01*
X125849Y41166D01*
Y41832D01*
X125183Y42499D01*
X123850D01*
X123184Y41832D01*
X246785Y46599D02*
Y43266D01*
X247451Y42600D01*
X248784D01*
X249451Y43266D01*
Y46599D01*
X250784D02*
X253450D01*
Y45932D01*
X250784Y43266D01*
Y42600D01*
X371985Y60741D02*
Y57409D01*
X372652Y56743D01*
X373984D01*
X374651Y57409D01*
Y60741D01*
X378649D02*
X377317Y60075D01*
X375984Y58742D01*
Y57409D01*
X376650Y56743D01*
X377983D01*
X378649Y57409D01*
Y58075D01*
X377983Y58742D01*
X375984D01*
X263685Y80999D02*
Y77666D01*
X264352Y77000D01*
X265684D01*
X266351Y77666D01*
Y80999D01*
X270350D02*
X267684D01*
Y78999D01*
X269017Y79666D01*
X269683D01*
X270350Y78999D01*
Y77666D01*
X269683Y77000D01*
X268350D01*
X267684Y77666D01*
X304585Y161899D02*
Y158566D01*
X305252Y157900D01*
X306584D01*
X307251Y158566D01*
Y161899D01*
X310583Y157900D02*
Y161899D01*
X308584Y159899D01*
X311249D01*
X460285Y184810D02*
Y181477D01*
X460952Y180811D01*
X462284D01*
X462951Y181477D01*
Y184810D01*
X466950Y180811D02*
X464284D01*
X466950Y183477D01*
Y184143D01*
X466283Y184810D01*
X464950D01*
X464284Y184143D01*
X116585Y178299D02*
Y174967D01*
X117252Y174300D01*
X118584D01*
X119251Y174967D01*
Y178299D01*
X120584Y177632D02*
X121250Y178299D01*
X122583D01*
X123249Y177632D01*
Y176966D01*
X122583Y176299D01*
X121917D01*
X122583D01*
X123249Y175633D01*
Y174967D01*
X122583Y174300D01*
X121250D01*
X120584Y174967D01*
X384125Y163210D02*
Y159878D01*
X384792Y159211D01*
X386124D01*
X386791Y159878D01*
Y163210D01*
X388124Y159211D02*
X389457D01*
X388790D01*
Y163210D01*
X388124Y162543D01*
X128651Y87332D02*
X127984Y87999D01*
X126652D01*
X125985Y87332D01*
Y86666D01*
X126652Y85999D01*
X127984D01*
X128651Y85333D01*
Y84666D01*
X127984Y84000D01*
X126652D01*
X125985Y84666D01*
X129984Y87999D02*
Y84000D01*
X131317Y85333D01*
X132650Y84000D01*
Y87999D01*
X133983Y84000D02*
X135315D01*
X134649D01*
Y87999D01*
X133983Y87332D01*
X70985Y160200D02*
Y164199D01*
X72984D01*
X73651Y163532D01*
Y162199D01*
X72984Y161533D01*
X70985D01*
X72318D02*
X73651Y160200D01*
X74984D02*
X76317D01*
X75650D01*
Y164199D01*
X74984Y163532D01*
X80982Y164199D02*
X78316D01*
Y162199D01*
X79649Y162866D01*
X80315D01*
X80982Y162199D01*
Y160866D01*
X80315Y160200D01*
X78983D01*
X78316Y160866D01*
X70985Y186300D02*
Y190299D01*
X72984D01*
X73651Y189632D01*
Y188299D01*
X72984Y187633D01*
X70985D01*
X72318D02*
X73651Y186300D01*
X74984D02*
X76317D01*
X75650D01*
Y190299D01*
X74984Y189632D01*
X80315Y186300D02*
Y190299D01*
X78316Y188299D01*
X80982D01*
X127085Y55900D02*
Y59899D01*
X129084D01*
X129751Y59232D01*
Y57899D01*
X129084Y57233D01*
X127085D01*
X128418D02*
X129751Y55900D01*
X131084D02*
X132417D01*
X131750D01*
Y59899D01*
X131084Y59232D01*
X134416D02*
X135082Y59899D01*
X136415D01*
X137082Y59232D01*
Y58566D01*
X136415Y57899D01*
X135749D01*
X136415D01*
X137082Y57233D01*
Y56566D01*
X136415Y55900D01*
X135082D01*
X134416Y56566D01*
X60685Y48900D02*
Y52899D01*
X62684D01*
X63351Y52232D01*
Y50899D01*
X62684Y50233D01*
X60685D01*
X62018D02*
X63351Y48900D01*
X64684Y49566D02*
X65350Y48900D01*
X66683D01*
X67349Y49566D01*
Y52232D01*
X66683Y52899D01*
X65350D01*
X64684Y52232D01*
Y51566D01*
X65350Y50899D01*
X67349D01*
X60685Y112100D02*
Y116099D01*
X62684D01*
X63351Y115432D01*
Y114099D01*
X62684Y113433D01*
X60685D01*
X62018D02*
X63351Y112100D01*
X64684Y115432D02*
X65350Y116099D01*
X66683D01*
X67349Y115432D01*
Y114766D01*
X66683Y114099D01*
X67349Y113433D01*
Y112767D01*
X66683Y112100D01*
X65350D01*
X64684Y112767D01*
Y113433D01*
X65350Y114099D01*
X64684Y114766D01*
Y115432D01*
X65350Y114099D02*
X66683D01*
X275185Y172400D02*
Y176399D01*
X277184D01*
X277851Y175732D01*
Y174399D01*
X277184Y173733D01*
X275185D01*
X276518D02*
X277851Y172400D01*
X279184Y176399D02*
X281850D01*
Y175732D01*
X279184Y173066D01*
Y172400D01*
X60685Y88600D02*
Y92599D01*
X62684D01*
X63351Y91932D01*
Y90599D01*
X62684Y89933D01*
X60685D01*
X62018D02*
X63351Y88600D01*
X67349Y92599D02*
X66017Y91932D01*
X64684Y90599D01*
Y89266D01*
X65350Y88600D01*
X66683D01*
X67349Y89266D01*
Y89933D01*
X66683Y90599D01*
X64684D01*
X290185Y148100D02*
Y152099D01*
X292184D01*
X292851Y151432D01*
Y150099D01*
X292184Y149433D01*
X290185D01*
X291518D02*
X292851Y148100D01*
X296849D02*
X294184D01*
X296849Y150766D01*
Y151432D01*
X296183Y152099D01*
X294850D01*
X294184Y151432D01*
X300848Y152099D02*
X298183D01*
Y150099D01*
X299515Y150766D01*
X300182D01*
X300848Y150099D01*
Y148767D01*
X300182Y148100D01*
X298849D01*
X298183Y148767D01*
X354685Y61000D02*
Y64999D01*
X356684D01*
X357351Y64332D01*
Y62999D01*
X356684Y62333D01*
X354685D01*
X356018D02*
X357351Y61000D01*
X361350D02*
X358684D01*
X361350Y63666D01*
Y64332D01*
X360683Y64999D01*
X359350D01*
X358684Y64332D01*
X364682Y61000D02*
Y64999D01*
X362683Y62999D01*
X365348D01*
X70985Y128200D02*
Y132199D01*
X72984D01*
X73651Y131532D01*
Y130199D01*
X72984Y129533D01*
X70985D01*
X72318D02*
X73651Y128200D01*
X74984D02*
X76317D01*
X75650D01*
Y132199D01*
X74984Y131532D01*
X80982Y128200D02*
X78316D01*
X80982Y130866D01*
Y131532D01*
X80315Y132199D01*
X78983D01*
X78316Y131532D01*
X305185Y172900D02*
Y176899D01*
X307184D01*
X307851Y176232D01*
Y174899D01*
X307184Y174233D01*
X305185D01*
X306518D02*
X307851Y172900D01*
X311849D02*
X309184D01*
X311849Y175566D01*
Y176232D01*
X311183Y176899D01*
X309850D01*
X309184Y176232D01*
X315848Y172900D02*
X313182D01*
X315848Y175566D01*
Y176232D01*
X315182Y176899D01*
X313849D01*
X313182Y176232D01*
X354685Y14100D02*
Y18099D01*
X356684D01*
X357351Y17432D01*
Y16099D01*
X356684Y15433D01*
X354685D01*
X356018D02*
X357351Y14100D01*
X361350D02*
X358684D01*
X361350Y16766D01*
Y17432D01*
X360683Y18099D01*
X359350D01*
X358684Y17432D01*
X362683Y14100D02*
X364015D01*
X363349D01*
Y18099D01*
X362683Y17432D01*
X70985Y154300D02*
Y158299D01*
X72984D01*
X73651Y157632D01*
Y156299D01*
X72984Y155633D01*
X70985D01*
X72318D02*
X73651Y154300D01*
X74984D02*
X76317D01*
X75650D01*
Y158299D01*
X74984Y157632D01*
X78316Y154300D02*
X79649D01*
X78983D01*
Y158299D01*
X78316Y157632D01*
X320185Y148100D02*
Y152099D01*
X322184D01*
X322851Y151432D01*
Y150099D01*
X322184Y149433D01*
X320185D01*
X321518D02*
X322851Y148100D01*
X324184D02*
X325517D01*
X324850D01*
Y152099D01*
X324184Y151432D01*
X327516Y148767D02*
X328183Y148100D01*
X329515D01*
X330182Y148767D01*
Y151432D01*
X329515Y152099D01*
X328183D01*
X327516Y151432D01*
Y150766D01*
X328183Y150099D01*
X330182D01*
X451392Y155600D02*
Y159599D01*
X453391D01*
X454058Y158932D01*
Y157599D01*
X453391Y156933D01*
X451392D01*
X452725D02*
X454058Y155600D01*
X458056Y159599D02*
X455391D01*
Y157599D01*
X456724Y158266D01*
X457390D01*
X458056Y157599D01*
Y156266D01*
X457390Y155600D01*
X456057D01*
X455391Y156266D01*
X400985Y61000D02*
Y64999D01*
X402984D01*
X403651Y64332D01*
Y62999D01*
X402984Y62333D01*
X400985D01*
X402318D02*
X403651Y61000D01*
X404984D02*
X406317D01*
X405650D01*
Y64999D01*
X404984Y64332D01*
X408316D02*
X408983Y64999D01*
X410315D01*
X410982Y64332D01*
Y63666D01*
X410315Y62999D01*
X410982Y62333D01*
Y61666D01*
X410315Y61000D01*
X408983D01*
X408316Y61666D01*
Y62333D01*
X408983Y62999D01*
X408316Y63666D01*
Y64332D01*
X408983Y62999D02*
X410315D01*
X451392Y204400D02*
Y208399D01*
X453391D01*
X454058Y207732D01*
Y206399D01*
X453391Y205733D01*
X451392D01*
X452725D02*
X454058Y204400D01*
X457390D02*
Y208399D01*
X455391Y206399D01*
X458056D01*
X335185Y172900D02*
Y176899D01*
X337184D01*
X337851Y176232D01*
Y174899D01*
X337184Y174233D01*
X335185D01*
X336518D02*
X337851Y172900D01*
X339184D02*
X340517D01*
X339850D01*
Y176899D01*
X339184Y176232D01*
X342516Y176899D02*
X345182D01*
Y176232D01*
X342516Y173566D01*
Y172900D01*
X468692Y161500D02*
Y165499D01*
X470691D01*
X471358Y164832D01*
Y163499D01*
X470691Y162833D01*
X468692D01*
X470025D02*
X471358Y161500D01*
X472691Y164832D02*
X473357Y165499D01*
X474690D01*
X475356Y164832D01*
Y164166D01*
X474690Y163499D01*
X474024D01*
X474690D01*
X475356Y162833D01*
Y162167D01*
X474690Y161500D01*
X473357D01*
X472691Y162167D01*
X400985Y14100D02*
Y18099D01*
X402984D01*
X403651Y17432D01*
Y16099D01*
X402984Y15433D01*
X400985D01*
X402318D02*
X403651Y14100D01*
X404984D02*
X406317D01*
X405650D01*
Y18099D01*
X404984Y17432D01*
X410982Y18099D02*
X409649Y17432D01*
X408316Y16099D01*
Y14766D01*
X408983Y14100D01*
X410315D01*
X410982Y14766D01*
Y15433D01*
X410315Y16099D01*
X408316D01*
X468692Y197500D02*
Y201499D01*
X470691D01*
X471358Y200832D01*
Y199499D01*
X470691Y198833D01*
X468692D01*
X470025D02*
X471358Y197500D01*
X475356D02*
X472691D01*
X475356Y200166D01*
Y200832D01*
X474690Y201499D01*
X473357D01*
X472691Y200832D01*
X58485Y147200D02*
Y151199D01*
X60484D01*
X61151Y150532D01*
Y149199D01*
X60484Y148533D01*
X58485D01*
X59818D02*
X61151Y147200D01*
X62484D02*
X63817D01*
X63150D01*
Y151199D01*
X62484Y150532D01*
X65816D02*
X66483Y151199D01*
X67815D01*
X68482Y150532D01*
Y147866D01*
X67815Y147200D01*
X66483D01*
X65816Y147866D01*
Y150532D01*
X494992Y168500D02*
Y172499D01*
X496991D01*
X497658Y171832D01*
Y170499D01*
X496991Y169833D01*
X494992D01*
X496325D02*
X497658Y168500D01*
X498991D02*
X500324D01*
X499657D01*
Y172499D01*
X498991Y171832D01*
X260451Y177466D02*
Y180132D01*
X259784Y180799D01*
X258452D01*
X257785Y180132D01*
Y177466D01*
X258452Y176800D01*
X259784D01*
X259118Y178133D02*
X260451Y176800D01*
X259784D02*
X260451Y177466D01*
X264450Y176800D02*
X261784D01*
X264450Y179466D01*
Y180132D01*
X263783Y180799D01*
X262450D01*
X261784Y180132D01*
X260051Y228766D02*
Y231432D01*
X259384Y232099D01*
X258051D01*
X257385Y231432D01*
Y228766D01*
X258051Y228100D01*
X259384D01*
X258718Y229433D02*
X260051Y228100D01*
X259384D02*
X260051Y228766D01*
X261384Y228100D02*
X262717D01*
X262050D01*
Y232099D01*
X261384Y231432D01*
X290051Y177466D02*
Y180132D01*
X289384Y180799D01*
X288052D01*
X287385Y180132D01*
Y177466D01*
X288052Y176800D01*
X289384D01*
X288718Y178133D02*
X290051Y176800D01*
X289384D02*
X290051Y177466D01*
X294050Y180799D02*
X292717Y180132D01*
X291384Y178799D01*
Y177466D01*
X292050Y176800D01*
X293383D01*
X294050Y177466D01*
Y178133D01*
X293383Y178799D01*
X291384D01*
X290051Y228766D02*
Y231432D01*
X289384Y232099D01*
X288052D01*
X287385Y231432D01*
Y228766D01*
X288052Y228100D01*
X289384D01*
X288718Y229433D02*
X290051Y228100D01*
X289384D02*
X290051Y228766D01*
X294050Y232099D02*
X291384D01*
Y230099D01*
X292717Y230766D01*
X293383D01*
X294050Y230099D01*
Y228766D01*
X293383Y228100D01*
X292050D01*
X291384Y228766D01*
X320051Y177466D02*
Y180132D01*
X319384Y180799D01*
X318052D01*
X317385Y180132D01*
Y177466D01*
X318052Y176800D01*
X319384D01*
X318718Y178133D02*
X320051Y176800D01*
X319384D02*
X320051Y177466D01*
X323383Y176800D02*
Y180799D01*
X321384Y178799D01*
X324049D01*
X320051Y228766D02*
Y231432D01*
X319384Y232099D01*
X318052D01*
X317385Y231432D01*
Y228766D01*
X318052Y228100D01*
X319384D01*
X318718Y229433D02*
X320051Y228100D01*
X319384D02*
X320051Y228766D01*
X321384Y231432D02*
X322050Y232099D01*
X323383D01*
X324049Y231432D01*
Y230766D01*
X323383Y230099D01*
X322717D01*
X323383D01*
X324049Y229433D01*
Y228766D01*
X323383Y228100D01*
X322050D01*
X321384Y228766D01*
X69985Y18000D02*
Y21999D01*
X71984D01*
X72651Y21332D01*
Y19999D01*
X71984Y19333D01*
X69985D01*
X76649Y18000D02*
X73984D01*
X76649Y20666D01*
Y21332D01*
X75983Y21999D01*
X74650D01*
X73984Y21332D01*
X167885Y73000D02*
Y76999D01*
X169884D01*
X170551Y76332D01*
Y74999D01*
X169884Y74333D01*
X167885D01*
X171884Y73000D02*
X173217D01*
X172550D01*
Y76999D01*
X171884Y76332D01*
X429139Y159099D02*
Y155100D01*
X431804D01*
X435803Y159099D02*
X433137D01*
Y155100D01*
X435803D01*
X433137Y157099D02*
X434470D01*
X437136Y159099D02*
Y155100D01*
X439135D01*
X439802Y155766D01*
Y158432D01*
X439135Y159099D01*
X437136D01*
X443800Y155100D02*
X441135D01*
X443800Y157766D01*
Y158432D01*
X443134Y159099D01*
X441801D01*
X441135Y158432D01*
X429292Y209399D02*
Y205400D01*
X431958D01*
X435956Y209399D02*
X433291D01*
Y205400D01*
X435956D01*
X433291Y207399D02*
X434624D01*
X437289Y209399D02*
Y205400D01*
X439289D01*
X439955Y206066D01*
Y208732D01*
X439289Y209399D01*
X437289D01*
X441288Y205400D02*
X442621D01*
X441955D01*
Y209399D01*
X441288Y208732D01*
X134485Y181499D02*
Y177500D01*
X137151D01*
X141149D02*
X138484D01*
X141149Y180166D01*
Y180832D01*
X140483Y181499D01*
X139150D01*
X138484Y180832D01*
X425451Y67099D02*
X424118D01*
X424784D01*
Y63766D01*
X424118Y63100D01*
X423452D01*
X422785Y63766D01*
X428783Y63100D02*
Y67099D01*
X426784Y65099D01*
X429450D01*
X581951Y249599D02*
X580618D01*
X581284D01*
Y246266D01*
X580618Y245600D01*
X579951D01*
X579285Y246266D01*
X585950Y249599D02*
X583284D01*
Y247599D01*
X584617Y248266D01*
X585283D01*
X585950Y247599D01*
Y246266D01*
X585283Y245600D01*
X583950D01*
X583284Y246266D01*
X4451Y201504D02*
X3118D01*
X3784D01*
Y198172D01*
X3118Y197505D01*
X2451D01*
X1785Y198172D01*
X5784Y200838D02*
X6450Y201504D01*
X7783D01*
X8450Y200838D01*
Y200171D01*
X7783Y199505D01*
X7117D01*
X7783D01*
X8450Y198838D01*
Y198172D01*
X7783Y197505D01*
X6450D01*
X5784Y198172D01*
X474451Y67099D02*
X473118D01*
X473784D01*
Y63766D01*
X473118Y63100D01*
X472451D01*
X471785Y63766D01*
X478449Y63100D02*
X475784D01*
X478449Y65766D01*
Y66432D01*
X477783Y67099D01*
X476450D01*
X475784Y66432D01*
X369551Y229643D02*
X368884Y230310D01*
X367551D01*
X366885Y229643D01*
Y226977D01*
X367551Y226311D01*
X368884D01*
X369551Y226977D01*
X370884D02*
X371550Y226311D01*
X372883D01*
X373550Y226977D01*
Y229643D01*
X372883Y230310D01*
X371550D01*
X370884Y229643D01*
Y228977D01*
X371550Y228310D01*
X373550D01*
X422951Y229643D02*
X422284Y230310D01*
X420952D01*
X420285Y229643D01*
Y226977D01*
X420952Y226311D01*
X422284D01*
X422951Y226977D01*
X424284Y229643D02*
X424950Y230310D01*
X426283D01*
X426950Y229643D01*
Y228977D01*
X426283Y228310D01*
X426950Y227644D01*
Y226977D01*
X426283Y226311D01*
X424950D01*
X424284Y226977D01*
Y227644D01*
X424950Y228310D01*
X424284Y228977D01*
Y229643D01*
X424950Y228310D02*
X426283D01*
X497158Y193832D02*
X496491Y194499D01*
X495158D01*
X494492Y193832D01*
Y191166D01*
X495158Y190500D01*
X496491D01*
X497158Y191166D01*
X498491Y194499D02*
X501157D01*
Y193832D01*
X498491Y191166D01*
Y190500D01*
X155751Y189832D02*
X155084Y190499D01*
X153752D01*
X153085Y189832D01*
Y187167D01*
X153752Y186500D01*
X155084D01*
X155751Y187167D01*
X157084Y186500D02*
X158417D01*
X157750D01*
Y190499D01*
X157084Y189832D01*
X160416D02*
X161082Y190499D01*
X162415D01*
X163082Y189832D01*
Y187167D01*
X162415Y186500D01*
X161082D01*
X160416Y187167D01*
Y189832D01*
X394951Y155232D02*
X394284Y155899D01*
X392951D01*
X392285Y155232D01*
Y152567D01*
X392951Y151900D01*
X394284D01*
X394951Y152567D01*
X398950Y155899D02*
X397617Y155232D01*
X396284Y153899D01*
Y152567D01*
X396950Y151900D01*
X398283D01*
X398950Y152567D01*
Y153233D01*
X398283Y153899D01*
X396284D01*
X179151Y19432D02*
X178484Y20099D01*
X177152D01*
X176485Y19432D01*
Y16767D01*
X177152Y16100D01*
X178484D01*
X179151Y16767D01*
X180484Y16100D02*
X181817D01*
X181150D01*
Y20099D01*
X180484Y19432D01*
X186482Y16100D02*
X183816D01*
X186482Y18766D01*
Y19432D01*
X185815Y20099D01*
X184483D01*
X183816Y19432D01*
X134551D02*
X133884Y20099D01*
X132552D01*
X131885Y19432D01*
Y16767D01*
X132552Y16100D01*
X133884D01*
X134551Y16767D01*
X135884Y16100D02*
X137217D01*
X136550D01*
Y20099D01*
X135884Y19432D01*
X139216Y16100D02*
X140549D01*
X139883D01*
Y20099D01*
X139216Y19432D01*
X422958Y193432D02*
X422291Y194099D01*
X420959D01*
X420292Y193432D01*
Y190767D01*
X420959Y190100D01*
X422291D01*
X422958Y190767D01*
X424291Y190100D02*
X425624D01*
X424957D01*
Y194099D01*
X424291Y193432D01*
D17*
X185710Y87133D02*
D03*
X177710Y87134D02*
D03*
D18*
X182685Y86133D02*
D03*
X174685Y86133D02*
D03*
D19*
X179700Y87263D02*
D03*
X171700Y87264D02*
D03*
D20*
X430472Y161975D02*
D03*
X430625Y196475D02*
D03*
D21*
X429472Y165000D02*
D03*
X429626Y199500D02*
D03*
D22*
X430602Y167985D02*
D03*
X430756Y202485D02*
D03*
M02*
